<svg width="32" height="35" viewBox="0 0 32 35" fill="none" xmlns="http://www.w3.org/2000/svg">
<mask id="path-1-inside-1_190_806" fill="white">
<path d="M4.65691 15.7018C4.87371 15.7018 5.05583 15.8895 5.05583 16.1131V25.6451C5.05583 25.8687 4.87371 26.0565 4.65691 26.0565H1.69973C1.48293 26.0565 1.30081 25.8687 1.30081 25.6451V16.1131C1.30081 15.8895 1.48293 15.7018 1.69973 15.7018H4.65691ZM4.65691 14.3605H1.69973C0.763144 14.3605 0 15.1474 0 16.1131V25.6451C0 26.6109 0.763144 27.3977 1.69973 27.3977H4.65691C5.5935 27.3977 6.35664 26.6109 6.35664 25.6451V16.1131C6.35664 15.1474 5.5935 14.3605 4.65691 14.3605Z"/>
</mask>
<path d="M4.65691 15.7018C4.87371 15.7018 5.05583 15.8895 5.05583 16.1131V25.6451C5.05583 25.8687 4.87371 26.0565 4.65691 26.0565H1.69973C1.48293 26.0565 1.30081 25.8687 1.30081 25.6451V16.1131C1.30081 15.8895 1.48293 15.7018 1.69973 15.7018H4.65691ZM4.65691 14.3605H1.69973C0.763144 14.3605 0 15.1474 0 16.1131V25.6451C0 26.6109 0.763144 27.3977 1.69973 27.3977H4.65691C5.5935 27.3977 6.35664 26.6109 6.35664 25.6451V16.1131C6.35664 15.1474 5.5935 14.3605 4.65691 14.3605Z" fill="white"/>
<path d="M4.65691 17.2018C4.0023 17.2018 3.55583 16.6743 3.55583 16.1131H6.55583C6.55583 15.1048 5.74513 14.2018 4.65691 14.2018V17.2018ZM3.55583 16.1131V25.6451H6.55583V16.1131H3.55583ZM3.55583 25.6451C3.55583 25.0839 4.0023 24.5565 4.65691 24.5565V27.5565C5.74513 27.5565 6.55583 26.6535 6.55583 25.6451H3.55583ZM4.65691 24.5565H1.69973V27.5565H4.65691V24.5565ZM1.69973 24.5565C2.35434 24.5565 2.80081 25.0839 2.80081 25.6451H-0.199187C-0.199187 26.6535 0.611517 27.5565 1.69973 27.5565V24.5565ZM2.80081 25.6451V16.1131H-0.199187V25.6451H2.80081ZM2.80081 16.1131C2.80081 16.6743 2.35434 17.2018 1.69973 17.2018V14.2018C0.611517 14.2018 -0.199187 15.1048 -0.199187 16.1131H2.80081ZM1.69973 17.2018H4.65691V14.2018H1.69973V17.2018ZM4.65691 12.8605H1.69973V15.8605H4.65691V12.8605ZM1.69973 12.8605C-0.108269 12.8605 -1.5 14.3626 -1.5 16.1131H1.5C1.5 16.031 1.5313 15.9644 1.57542 15.9189C1.61885 15.8741 1.66248 15.8605 1.69973 15.8605V12.8605ZM-1.5 16.1131V25.6451H1.5V16.1131H-1.5ZM-1.5 25.6451C-1.5 27.3956 -0.108269 28.8977 1.69973 28.8977V25.8977C1.66248 25.8977 1.61885 25.8841 1.57542 25.8393C1.5313 25.7938 1.5 25.7272 1.5 25.6451H-1.5ZM1.69973 28.8977H4.65691V25.8977H1.69973V28.8977ZM4.65691 28.8977C6.46491 28.8977 7.85664 27.3956 7.85664 25.6451H4.85664C4.85664 25.7272 4.82534 25.7938 4.78121 25.8393C4.73779 25.8841 4.69416 25.8977 4.65691 25.8977V28.8977ZM7.85664 25.6451V16.1131H4.85664V25.6451H7.85664ZM7.85664 16.1131C7.85664 14.3626 6.46491 12.8605 4.65691 12.8605V15.8605C4.69416 15.8605 4.73779 15.8741 4.78121 15.9189C4.82534 15.9644 4.85664 16.031 4.85664 16.1131H7.85664Z" fill="#EDEDED" mask="url(#path-1-inside-1_190_806)"/>
<mask id="path-3-inside-2_190_806" fill="white">
<path d="M30.3002 15.7018C30.517 15.7018 30.6991 15.8895 30.6991 16.1131V25.6451C30.6991 25.8687 30.517 26.0565 30.3002 26.0565H27.343C27.1262 26.0565 26.9441 25.8687 26.9441 25.6451V16.1131C26.9441 15.8895 27.1262 15.7018 27.343 15.7018H30.3002ZM30.3002 14.3605H27.343C26.4065 14.3605 25.6433 15.1474 25.6433 16.1131V25.6451C25.6433 26.6109 26.4065 27.3977 27.343 27.3977H30.3002C31.2368 27.3977 32 26.6109 32 25.6451V16.1131C32 15.1474 31.2368 14.3605 30.3002 14.3605Z"/>
</mask>
<path d="M30.3002 15.7018C30.517 15.7018 30.6991 15.8895 30.6991 16.1131V25.6451C30.6991 25.8687 30.517 26.0565 30.3002 26.0565H27.343C27.1262 26.0565 26.9441 25.8687 26.9441 25.6451V16.1131C26.9441 15.8895 27.1262 15.7018 27.343 15.7018H30.3002ZM30.3002 14.3605H27.343C26.4065 14.3605 25.6433 15.1474 25.6433 16.1131V25.6451C25.6433 26.6109 26.4065 27.3977 27.343 27.3977H30.3002C31.2368 27.3977 32 26.6109 32 25.6451V16.1131C32 15.1474 31.2368 14.3605 30.3002 14.3605Z" fill="white"/>
<path d="M30.3002 17.2018C29.6456 17.2018 29.1991 16.6743 29.1991 16.1131H32.1991C32.1991 15.1048 31.3884 14.2018 30.3002 14.2018V17.2018ZM29.1991 16.1131V25.6451H32.1991V16.1131H29.1991ZM29.1991 25.6451C29.1991 25.0839 29.6456 24.5565 30.3002 24.5565V27.5565C31.3884 27.5565 32.1991 26.6535 32.1991 25.6451H29.1991ZM30.3002 24.5565H27.343V27.5565H30.3002V24.5565ZM27.343 24.5565C27.9976 24.5565 28.4441 25.0839 28.4441 25.6451H25.4441C25.4441 26.6535 26.2548 27.5565 27.343 27.5565V24.5565ZM28.4441 25.6451V16.1131H25.4441V25.6451H28.4441ZM28.4441 16.1131C28.4441 16.6743 27.9976 17.2018 27.343 17.2018V14.2018C26.2548 14.2018 25.4441 15.1047 25.4441 16.1131H28.4441ZM27.343 17.2018H30.3002V14.2018H27.343V17.2018ZM30.3002 12.8605H27.343V15.8605H30.3002V12.8605ZM27.343 12.8605C25.535 12.8605 24.1433 14.3626 24.1433 16.1131H27.1433C27.1433 16.031 27.1746 15.9644 27.2187 15.9189C27.2622 15.8741 27.3058 15.8605 27.343 15.8605V12.8605ZM24.1433 16.1131V25.6451H27.1433V16.1131H24.1433ZM24.1433 25.6451C24.1433 27.3956 25.535 28.8977 27.343 28.8977V25.8977C27.3058 25.8977 27.2622 25.8841 27.2187 25.8393C27.1746 25.7938 27.1433 25.7272 27.1433 25.6451H24.1433ZM27.343 28.8977H30.3002V25.8977H27.343V28.8977ZM30.3002 28.8977C32.1082 28.8977 33.5 27.3956 33.5 25.6451H30.5C30.5 25.7272 30.4687 25.7938 30.4245 25.8393C30.3811 25.8841 30.3375 25.8977 30.3002 25.8977V28.8977ZM33.5 25.6451V16.1131H30.5V25.6451H33.5ZM33.5 16.1131C33.5 14.3626 32.1082 12.8605 30.3002 12.8605V15.8605C30.3375 15.8605 30.3811 15.8741 30.4245 15.9189C30.4687 15.9644 30.5 16.031 30.5 16.1131H33.5Z" fill="#EDEDED" mask="url(#path-3-inside-2_190_806)"/>
<path d="M3.17383 14.6917C3.17383 7.42196 8.94944 1.46667 15.9998 1.46667C23.0503 1.46667 28.8259 7.42196 28.8259 14.6917" stroke="#EDEDED" stroke-width="2" stroke-miterlimit="10"/>
<path d="M3.17383 26.2891V28.757C3.17383 30.6885 4.69144 32.2533 6.56461 32.2533H14.3175" stroke="#EDEDED" stroke-width="1.5" stroke-miterlimit="10"/>
<path d="M18.8616 30.2686H14.9939C14.4239 30.2686 13.9619 30.7451 13.9619 31.3329V33.1842C13.9619 33.772 14.4239 34.2485 14.9939 34.2485H18.8616C19.4316 34.2485 19.8936 33.772 19.8936 33.1842V31.3329C19.8936 30.7451 19.4316 30.2686 18.8616 30.2686Z" stroke="#EDEDED" stroke-width="1.5" stroke-miterlimit="10"/>
<path d="M19.8418 23.3204H12.1237C10.4066 23.3204 9.01904 21.8897 9.01904 20.1193V14.8167C9.01904 13.0462 10.4066 11.6155 12.1237 11.6155H24.0738C24.6895 11.6155 25.0451 12.3309 24.6895 12.8495L22.9377 15.4158V20.1282C22.9377 21.8987 21.5502 23.3294 19.8331 23.3294L19.8418 23.3204Z" stroke="#EDEDED" stroke-width="1.5" stroke-miterlimit="10"/>
<path d="M12.6436 16.1312H19.3557" stroke="#EDEDED" stroke-miterlimit="10" stroke-linecap="round"/>
<path d="M12.6436 18.7959H19.3557" stroke="#EDEDED" stroke-miterlimit="10" stroke-linecap="round"/>
</svg>
