<svg width="36" height="36" viewBox="0 0 36 36" fill="none" xmlns="http://www.w3.org/2000/svg">
<mask id="path-1-inside-1_300_782" fill="white">
<path d="M18 0.9C27.426 0.9 35.1 8.574 35.1 18C35.1 27.426 27.426 35.1 18 35.1C8.574 35.1 0.9 27.426 0.9 18C0.9 8.574 8.574 0.9 18 0.9ZM18 0C8.058 0 0 8.058 0 18C0 27.942 8.058 36 18 36C27.942 36 36 27.942 36 18C36 8.058 27.942 0 18 0Z"/>
</mask>
<path d="M18 0.9C27.426 0.9 35.1 8.574 35.1 18C35.1 27.426 27.426 35.1 18 35.1C8.574 35.1 0.9 27.426 0.9 18C0.9 8.574 8.574 0.9 18 0.9ZM18 0C8.058 0 0 8.058 0 18C0 27.942 8.058 36 18 36C27.942 36 36 27.942 36 18C36 8.058 27.942 0 18 0Z" fill="white"/>
<path d="M18 2.9C26.3214 2.9 33.1 9.67857 33.1 18H37.1C37.1 7.46943 28.5306 -1.1 18 -1.1V2.9ZM33.1 18C33.1 26.3214 26.3214 33.1 18 33.1V37.1C28.5306 37.1 37.1 28.5306 37.1 18H33.1ZM18 33.1C9.67857 33.1 2.9 26.3214 2.9 18H-1.1C-1.1 28.5306 7.46943 37.1 18 37.1V33.1ZM2.9 18C2.9 9.67857 9.67857 2.9 18 2.9V-1.1C7.46943 -1.1 -1.1 7.46943 -1.1 18H2.9ZM18 -2C6.95343 -2 -2 6.95343 -2 18H2C2 9.16257 9.16257 2 18 2V-2ZM-2 18C-2 29.0466 6.95343 38 18 38V34C9.16257 34 2 26.8374 2 18H-2ZM18 38C29.0466 38 38 29.0466 38 18H34C34 26.8374 26.8374 34 18 34V38ZM38 18C38 6.95343 29.0466 -2 18 -2V2C26.8374 2 34 9.16257 34 18H38Z" fill="#EDEDED" mask="url(#path-1-inside-1_300_782)"/>
<mask id="path-3-inside-2_300_782" fill="white">
<path d="M10.1519 16.5541C10.3019 16.5541 10.4279 16.6801 10.4279 16.8301V23.2261C10.4279 23.3761 10.3019 23.5021 10.1519 23.5021H8.10593C7.95593 23.5021 7.82993 23.3761 7.82993 23.2261V16.8301C7.82993 16.6801 7.95593 16.5541 8.10593 16.5541H10.1519ZM10.1519 15.6541H8.10593C7.45793 15.6541 6.92993 16.1821 6.92993 16.8301V23.2261C6.92993 23.8741 7.45793 24.4021 8.10593 24.4021H10.1519C10.7999 24.4021 11.3279 23.8741 11.3279 23.2261V16.8301C11.3279 16.1821 10.7999 15.6541 10.1519 15.6541Z"/>
</mask>
<path d="M10.1519 16.5541C10.3019 16.5541 10.4279 16.6801 10.4279 16.8301V23.2261C10.4279 23.3761 10.3019 23.5021 10.1519 23.5021H8.10593C7.95593 23.5021 7.82993 23.3761 7.82993 23.2261V16.8301C7.82993 16.6801 7.95593 16.5541 8.10593 16.5541H10.1519ZM10.1519 15.6541H8.10593C7.45793 15.6541 6.92993 16.1821 6.92993 16.8301V23.2261C6.92993 23.8741 7.45793 24.4021 8.10593 24.4021H10.1519C10.7999 24.4021 11.3279 23.8741 11.3279 23.2261V16.8301C11.3279 16.1821 10.7999 15.6541 10.1519 15.6541Z" fill="white"/>
<path d="M10.1519 17.5541C9.74965 17.5541 9.42793 17.2323 9.42793 16.8301H11.4279C11.4279 16.1278 10.8542 15.5541 10.1519 15.5541V17.5541ZM9.42793 16.8301V23.2261H11.4279V16.8301H9.42793ZM9.42793 23.2261C9.42793 22.8238 9.74965 22.5021 10.1519 22.5021V24.5021C10.8542 24.5021 11.4279 23.9283 11.4279 23.2261H9.42793ZM10.1519 22.5021H8.10593V24.5021H10.1519V22.5021ZM8.10593 22.5021C8.50821 22.5021 8.82993 22.8238 8.82993 23.2261H6.82993C6.82993 23.9283 7.40365 24.5021 8.10593 24.5021V22.5021ZM8.82993 23.2261V16.8301H6.82993V23.2261H8.82993ZM8.82993 16.8301C8.82993 17.2323 8.50821 17.5541 8.10593 17.5541V15.5541C7.40365 15.5541 6.82993 16.1278 6.82993 16.8301H8.82993ZM8.10593 17.5541H10.1519V15.5541H8.10593V17.5541ZM10.1519 14.6541H8.10593V16.6541H10.1519V14.6541ZM8.10593 14.6541C6.90565 14.6541 5.92993 15.6298 5.92993 16.8301H7.92993C7.92993 16.7343 8.01022 16.6541 8.10593 16.6541V14.6541ZM5.92993 16.8301V23.2261H7.92993V16.8301H5.92993ZM5.92993 23.2261C5.92993 24.4263 6.90565 25.4021 8.10593 25.4021V23.4021C8.01022 23.4021 7.92993 23.3218 7.92993 23.2261H5.92993ZM8.10593 25.4021H10.1519V23.4021H8.10593V25.4021ZM10.1519 25.4021C11.3522 25.4021 12.3279 24.4263 12.3279 23.2261H10.3279C10.3279 23.3218 10.2476 23.4021 10.1519 23.4021V25.4021ZM12.3279 23.2261V16.8301H10.3279V23.2261H12.3279ZM12.3279 16.8301C12.3279 15.6298 11.3522 14.6541 10.1519 14.6541V16.6541C10.2476 16.6541 10.3279 16.7343 10.3279 16.8301H12.3279Z" fill="#EDEDED" mask="url(#path-3-inside-2_300_782)"/>
<mask id="path-5-inside-3_300_782" fill="white">
<path d="M27.8939 16.5541C28.0439 16.5541 28.1699 16.6801 28.1699 16.8301V23.2261C28.1699 23.3761 28.0439 23.5021 27.8939 23.5021H25.8479C25.6979 23.5021 25.5719 23.3761 25.5719 23.2261V16.8301C25.5719 16.6801 25.6979 16.5541 25.8479 16.5541H27.8939ZM27.8939 15.6541H25.8479C25.1999 15.6541 24.6719 16.1821 24.6719 16.8301V23.2261C24.6719 23.8741 25.1999 24.4021 25.8479 24.4021H27.8939C28.5419 24.4021 29.0699 23.8741 29.0699 23.2261V16.8301C29.0699 16.1821 28.5419 15.6541 27.8939 15.6541Z"/>
</mask>
<path d="M27.8939 16.5541C28.0439 16.5541 28.1699 16.6801 28.1699 16.8301V23.2261C28.1699 23.3761 28.0439 23.5021 27.8939 23.5021H25.8479C25.6979 23.5021 25.5719 23.3761 25.5719 23.2261V16.8301C25.5719 16.6801 25.6979 16.5541 25.8479 16.5541H27.8939ZM27.8939 15.6541H25.8479C25.1999 15.6541 24.6719 16.1821 24.6719 16.8301V23.2261C24.6719 23.8741 25.1999 24.4021 25.8479 24.4021H27.8939C28.5419 24.4021 29.0699 23.8741 29.0699 23.2261V16.8301C29.0699 16.1821 28.5419 15.6541 27.8939 15.6541Z" fill="white"/>
<path d="M27.8939 17.5541C27.4916 17.5541 27.1699 17.2323 27.1699 16.8301H29.1699C29.1699 16.1278 28.5962 15.5541 27.8939 15.5541V17.5541ZM27.1699 16.8301V23.2261H29.1699V16.8301H27.1699ZM27.1699 23.2261C27.1699 22.8238 27.4916 22.5021 27.8939 22.5021V24.5021C28.5962 24.5021 29.1699 23.9283 29.1699 23.2261H27.1699ZM27.8939 22.5021H25.8479V24.5021H27.8939V22.5021ZM25.8479 22.5021C26.2502 22.5021 26.5719 22.8238 26.5719 23.2261H24.5719C24.5719 23.9283 25.1456 24.5021 25.8479 24.5021V22.5021ZM26.5719 23.2261V16.8301H24.5719V23.2261H26.5719ZM26.5719 16.8301C26.5719 17.2323 26.2502 17.5541 25.8479 17.5541V15.5541C25.1456 15.5541 24.5719 16.1278 24.5719 16.8301H26.5719ZM25.8479 17.5541H27.8939V15.5541H25.8479V17.5541ZM27.8939 14.6541H25.8479V16.6541H27.8939V14.6541ZM25.8479 14.6541C24.6476 14.6541 23.6719 15.6298 23.6719 16.8301H25.6719C25.6719 16.7343 25.7522 16.6541 25.8479 16.6541V14.6541ZM23.6719 16.8301V23.2261H25.6719V16.8301H23.6719ZM23.6719 23.2261C23.6719 24.4263 24.6476 25.4021 25.8479 25.4021V23.4021C25.7522 23.4021 25.6719 23.3218 25.6719 23.2261H23.6719ZM25.8479 25.4021H27.8939V23.4021H25.8479V25.4021ZM27.8939 25.4021C29.0942 25.4021 30.0699 24.4263 30.0699 23.2261H28.0699C28.0699 23.3218 27.9896 23.4021 27.8939 23.4021V25.4021ZM30.0699 23.2261V16.8301H28.0699V23.2261H30.0699ZM30.0699 16.8301C30.0699 15.6298 29.0942 14.6541 27.8939 14.6541V16.6541C27.9896 16.6541 28.0699 16.7343 28.0699 16.8301H30.0699Z" fill="#EDEDED" mask="url(#path-5-inside-3_300_782)"/>
<path d="M9.12573 15.8764C9.12573 10.9984 13.1217 7.00244 17.9997 7.00244C22.8777 7.00244 26.8737 10.9984 26.8737 15.8764" stroke="#EDEDED" stroke-miterlimit="10"/>
<path d="M9.12573 23.6582V25.3142C9.12573 26.6102 10.1757 27.6602 11.4717 27.6602H16.8357" stroke="#EDEDED" stroke-miterlimit="10"/>
<path d="M19.9798 26.3284H17.3038C16.9095 26.3284 16.5898 26.648 16.5898 27.0424V28.2844C16.5898 28.6787 16.9095 28.9984 17.3038 28.9984H19.9798C20.3742 28.9984 20.6938 28.6787 20.6938 28.2844V27.0424C20.6938 26.648 20.3742 26.3284 19.9798 26.3284Z" stroke="#EDEDED" stroke-miterlimit="10"/>
<path d="M20.6579 21.6663H15.3179C14.1299 21.6663 13.1699 20.7063 13.1699 19.5183V15.9603C13.1699 14.7723 14.1299 13.8123 15.3179 13.8123H23.5859C24.0119 13.8123 24.2579 14.2923 24.0119 14.6403L22.7999 16.3623V19.5243C22.7999 20.7123 21.8399 21.6723 20.6519 21.6723L20.6579 21.6663Z" stroke="#EDEDED" stroke-miterlimit="10"/>
<path d="M15.6777 16.8423H20.3217" stroke="#EDEDED" stroke-miterlimit="10" stroke-linecap="round"/>
<path d="M15.6777 18.6304H20.3217" stroke="#EDEDED" stroke-miterlimit="10" stroke-linecap="round"/>
</svg>
