<svg width="25" height="20" viewBox="0 0 25 20" fill="none" xmlns="http://www.w3.org/2000/svg">
<path d="M23.6001 3.79999C23.6001 3.19999 23.2001 2.79999 22.6001 2.79999H12.1001C11.5001 2.79999 11.1001 3.19999 11.1001 3.79999C11.1001 4.39999 11.5001 4.79999 12.1001 4.79999H22.6001C23.1001 4.79999 23.6001 4.29999 23.6001 3.79999Z" fill="#606060"/>
<path d="M1.6001 4.80001H4.3001C4.9001 6.40001 6.6001 7.20001 8.1001 6.60001C9.6001 6.00001 10.5001 4.30001 9.9001 2.80001C9.4001 1.20001 7.6001 0.400014 6.1001 0.900014C5.2001 1.20001 4.6001 1.90001 4.3001 2.70001H1.6001C1.0001 2.70001 0.600098 3.10001 0.600098 3.70001C0.600098 4.30001 1.0001 4.80001 1.6001 4.80001ZM7.1001 2.80001C7.7001 2.80001 8.1001 3.20001 8.1001 3.80001C8.1001 4.40001 7.7001 4.80001 7.1001 4.80001C6.5001 4.80001 6.1001 4.40001 6.1001 3.80001C6.1001 3.20001 6.5001 2.80001 7.1001 2.80001Z" fill="#606060"/>
<path d="M22.6002 8.79999H18.9002C18.3002 7.19999 16.6002 6.39999 15.1002 6.99999C13.6002 7.59999 12.7002 9.29999 13.3002 10.8C13.9002 12.3 15.6002 13.2 17.1002 12.6C18.0002 12.3 18.6002 11.6 18.9002 10.8H22.6002C23.2002 10.8 23.6002 10.4 23.6002 9.79999C23.6002 9.19999 23.1002 8.79999 22.6002 8.79999ZM16.1002 10.8C15.5002 10.8 15.1002 10.4 15.1002 9.79999C15.1002 9.19999 15.5002 8.79999 16.1002 8.79999C16.7002 8.79999 17.1002 9.19999 17.1002 9.79999C17.1002 10.3 16.6002 10.8 16.1002 10.8Z" fill="#606060"/>
<path d="M11.1001 8.79999H1.6001C1.0001 8.79999 0.600098 9.19999 0.600098 9.79999C0.600098 10.4 1.0001 10.8 1.6001 10.8H11.1001C11.7001 10.8 12.1001 10.4 12.1001 9.79999C12.1001 9.19999 11.6001 8.79999 11.1001 8.79999Z" fill="#606060"/>
<path d="M22.6001 14.8H14.1001C13.5001 14.8 13.1001 15.2 13.1001 15.8C13.1001 16.4 13.5001 16.8 14.1001 16.8H22.6001C23.2001 16.8 23.6001 16.4 23.6001 15.8C23.6001 15.2 23.1001 14.8 22.6001 14.8Z" fill="#606060"/>
<path d="M9.1001 12.8C7.8001 12.8 6.7001 13.6 6.3001 14.8H1.6001C1.0001 14.8 0.600098 15.2 0.600098 15.8C0.600098 16.4 1.0001 16.8 1.6001 16.8H6.3001C6.9001 18.4 8.6001 19.2 10.1001 18.6C11.7001 18 12.5001 16.3 11.9001 14.8C11.5001 13.6 10.4001 12.8 9.1001 12.8ZM9.1001 16.8C8.5001 16.8 8.1001 16.4 8.1001 15.8C8.1001 15.2 8.5001 14.8 9.1001 14.8C9.7001 14.8 10.1001 15.2 10.1001 15.8C10.1001 16.3 9.6001 16.8 9.1001 16.8Z" fill="#606060"/>
</svg>
