<svg width="24" height="24" viewBox="0 0 24 24" fill="none" xmlns="http://www.w3.org/2000/svg">
<g clip-path="url(#clip0_300_809)">
<path d="M14.7543 6.91504H9.24581C8.93976 6.91503 8.63671 6.97531 8.35395 7.09243C8.0712 7.20955 7.81428 7.38121 7.59787 7.59762C7.38146 7.81403 7.20979 8.07095 7.09267 8.35371C6.97555 8.63646 6.91528 8.93952 6.91528 9.24557V14.754C6.91528 15.3721 7.16082 15.9649 7.59788 16.402C7.81429 16.6184 8.07121 16.79 8.35396 16.9072C8.63671 17.0243 8.93976 17.0846 9.24581 17.0846H14.7543C15.3724 17.0846 15.9651 16.839 16.4022 16.402C16.8392 15.9649 17.0848 15.3721 17.0848 14.754V9.24557C17.0848 8.93952 17.0245 8.63647 16.9074 8.35372C16.7903 8.07097 16.6186 7.81405 16.4022 7.59764C16.1858 7.38123 15.9289 7.20956 15.6461 7.09244C15.3634 6.97532 15.0603 6.91504 14.7543 6.91504ZM12 15.2056C11.366 15.2056 10.7462 15.0176 10.219 14.6654C9.69179 14.3131 9.28089 13.8124 9.03825 13.2266C8.79561 12.6408 8.73212 11.9962 8.85582 11.3744C8.97952 10.7525 9.28484 10.1813 9.73319 9.73294C10.1815 9.2846 10.7528 8.97927 11.3746 8.85558C11.9965 8.73188 12.6411 8.79536 13.2269 9.03801C13.8127 9.28065 14.3133 9.69155 14.6656 10.2187C15.0179 10.7459 15.2059 11.3658 15.2059 11.9998C15.2059 12.4208 15.123 12.8377 14.9618 13.2266C14.8007 13.6156 14.5646 13.969 14.2669 14.2667C13.9692 14.5644 13.6158 14.8005 13.2269 14.9616C12.8379 15.1227 12.421 15.2056 12 15.2056ZM15.3395 9.44887C15.1887 9.44888 15.0412 9.40415 14.9158 9.32035C14.7903 9.23655 14.6926 9.11744 14.6348 8.97807C14.5771 8.83871 14.562 8.68535 14.5914 8.5374C14.6208 8.38944 14.6935 8.25354 14.8001 8.14687C14.9068 8.0402 15.0427 7.96755 15.1907 7.93812C15.3386 7.90869 15.492 7.92379 15.6313 7.98151C15.7707 8.03924 15.8898 8.137 15.9736 8.26242C16.0574 8.38785 16.1022 8.53531 16.1022 8.68616C16.1022 8.88844 16.0218 9.08243 15.8788 9.22546C15.7358 9.36849 15.5418 9.44886 15.3395 9.44887Z" fill="#EDEDED"/>
<path d="M12 9.91602C11.5878 9.91602 11.1849 10.0382 10.8423 10.2672C10.4996 10.4962 10.2325 10.8216 10.0748 11.2024C9.91704 11.5832 9.87577 12.0022 9.95618 12.4064C10.0366 12.8106 10.235 13.1819 10.5265 13.4733C10.8179 13.7648 11.1892 13.9632 11.5934 14.0436C11.9977 14.124 12.4166 14.0828 12.7974 13.9251C13.1782 13.7673 13.5036 13.5002 13.7326 13.1576C13.9616 12.8149 14.0838 12.412 14.0838 11.9998C14.0838 11.4472 13.8642 10.9171 13.4735 10.5264C13.0827 10.1356 12.5526 9.91602 12 9.91602Z" fill="#EDEDED"/>
<path d="M12 0C5.37258 0 0 5.37258 0 12C0 18.6274 5.37258 24 12 24C18.6274 24 24 18.6274 24 12C24 5.37258 18.6274 0 12 0ZM18.25 14.6484C18.2499 15.6036 17.8705 16.5197 17.1951 17.1951C16.5197 17.8705 15.6036 18.2499 14.6484 18.25H9.35156C8.39638 18.2499 7.48033 17.8705 6.80491 17.1951C6.12949 16.5197 5.75002 15.6036 5.74997 14.6484V9.35156C5.75001 8.39638 6.12947 7.48032 6.8049 6.80491C7.48032 6.12949 8.39638 5.75004 9.35156 5.75002H14.6484C15.6036 5.75005 16.5197 6.12951 17.1951 6.80492C17.8705 7.48034 18.2499 8.39638 18.25 9.35156V14.6484Z" fill="#EDEDED"/>
</g>
<defs>
<clipPath id="clip0_300_809">
<rect width="24" height="24" fill="white"/>
</clipPath>
</defs>
</svg>
