<svg width="35" height="35" viewBox="0 0 35 35" fill="none" xmlns="http://www.w3.org/2000/svg">
<g clip-path="url(#clip0_414_989)">
<path d="M21.2204 9.87891H13.3511C12.9139 9.8789 12.481 9.96501 12.077 10.1323C11.6731 10.2996 11.3061 10.5449 10.9969 10.854C10.6878 11.1632 10.4425 11.5302 10.2752 11.9341C10.1079 12.3381 10.0218 12.771 10.0218 13.2082V21.0775C10.0218 21.9605 10.3726 22.8073 10.9969 23.4317C11.3061 23.7408 11.6731 23.9861 12.077 24.1534C12.481 24.3207 12.9139 24.4068 13.3511 24.4068H21.2204C22.1033 24.4068 22.9502 24.056 23.5745 23.4316C24.1989 22.8073 24.5496 21.9605 24.5496 21.0775V13.2082C24.5496 12.771 24.4635 12.3381 24.2962 11.9342C24.1289 11.5302 23.8837 11.1632 23.5745 10.854C23.2654 10.5449 22.8984 10.2997 22.4944 10.1323C22.0905 9.96502 21.6576 9.87891 21.2204 9.87891ZM17.2857 21.7226C16.38 21.7226 15.4945 21.454 14.7414 20.9508C13.9882 20.4476 13.4012 19.7323 13.0546 18.8955C12.708 18.0586 12.6173 17.1378 12.794 16.2494C12.9707 15.361 13.4069 14.545 14.0474 13.9045C14.6879 13.264 15.5039 12.8278 16.3923 12.6511C17.2807 12.4744 18.2015 12.5651 19.0383 12.9117C19.8752 13.2583 20.5904 13.8453 21.0937 14.5985C21.5969 15.3516 21.8655 16.2371 21.8655 17.1429C21.8655 17.7443 21.747 18.3398 21.5169 18.8955C21.2867 19.4511 20.9494 19.956 20.5241 20.3812C20.0988 20.8065 19.594 21.1438 19.0383 21.374C18.4827 21.6042 17.8872 21.7226 17.2857 21.7226ZM22.0564 13.4987C21.8409 13.4987 21.6302 13.4348 21.4511 13.3151C21.2719 13.1954 21.1322 13.0252 21.0497 12.8261C20.9672 12.627 20.9457 12.4079 20.9877 12.1966C21.0297 11.9852 21.1335 11.791 21.2859 11.6387C21.4383 11.4863 21.6324 11.3825 21.8438 11.3405C22.0551 11.2984 22.2742 11.32 22.4733 11.4024C22.6724 11.4849 22.8426 11.6246 22.9623 11.8037C23.082 11.9829 23.1459 12.1936 23.1459 12.4091C23.1459 12.698 23.0311 12.9752 22.8268 13.1795C22.6225 13.3838 22.3454 13.4986 22.0564 13.4987Z" fill="#EDEDED"/>
<path d="M17.2857 14.166C16.697 14.166 16.1214 14.3406 15.6319 14.6677C15.1423 14.9948 14.7608 15.4597 14.5354 16.0037C14.3101 16.5477 14.2512 17.1462 14.366 17.7237C14.4809 18.3011 14.7644 18.8316 15.1808 19.2479C15.5971 19.6642 16.1275 19.9477 16.705 20.0626C17.2824 20.1775 17.881 20.1185 18.4249 19.8932C18.9689 19.6679 19.4338 19.2863 19.7609 18.7968C20.088 18.3072 20.2626 17.7317 20.2626 17.1429C20.2626 16.3534 19.949 15.5962 19.3907 15.0379C18.8324 14.4797 18.0753 14.166 17.2857 14.166Z" fill="#EDEDED"/>
<path d="M17.2857 0C7.818 0 0.142883 7.67511 0.142883 17.1429C0.142883 26.6106 7.818 34.2857 17.2857 34.2857C26.7535 34.2857 34.4286 26.6106 34.4286 17.1429C34.4286 7.67511 26.7535 0 17.2857 0ZM26.2143 20.9263C26.2142 22.2909 25.6721 23.5995 24.7073 24.5644C23.7424 25.5293 22.4338 26.0714 21.0692 26.0714H13.5023C12.1377 26.0714 10.8291 25.5293 9.86418 24.5644C8.89929 23.5995 8.35719 22.2909 8.35712 20.9263V13.3594C8.35718 11.9948 8.89927 10.6862 9.86416 9.7213C10.8291 8.75642 12.1377 8.21434 13.5023 8.21431H21.0692C22.4338 8.21436 23.7424 8.75645 24.7073 9.72132C25.6721 10.6862 26.2142 11.9948 26.2143 13.3594V20.9263Z" fill="#EDEDED"/>
</g>
<defs>
<clipPath id="clip0_414_989">
<rect width="34.2857" height="34.2857" fill="white" transform="translate(0.142883)"/>
</clipPath>
</defs>
</svg>
