<svg width="36" height="36" viewBox="0 0 36 36" fill="none" xmlns="http://www.w3.org/2000/svg">
<mask id="path-1-inside-1_300_815" fill="white">
<path d="M18 0.9C27.426 0.9 35.1 8.574 35.1 18C35.1 27.426 27.426 35.1 18 35.1C8.574 35.1 0.9 27.426 0.9 18C0.9 8.574 8.574 0.9 18 0.9ZM18 0C8.058 0 0 8.058 0 18C0 27.942 8.058 36 18 36C27.942 36 36 27.942 36 18C36 8.058 27.942 0 18 0Z"/>
</mask>
<path d="M18 0.9C27.426 0.9 35.1 8.574 35.1 18C35.1 27.426 27.426 35.1 18 35.1C8.574 35.1 0.9 27.426 0.9 18C0.9 8.574 8.574 0.9 18 0.9ZM18 0C8.058 0 0 8.058 0 18C0 27.942 8.058 36 18 36C27.942 36 36 27.942 36 18C36 8.058 27.942 0 18 0Z" fill="white"/>
<path d="M18 2.9C26.3214 2.9 33.1 9.67857 33.1 18H37.1C37.1 7.46943 28.5306 -1.1 18 -1.1V2.9ZM33.1 18C33.1 26.3214 26.3214 33.1 18 33.1V37.1C28.5306 37.1 37.1 28.5306 37.1 18H33.1ZM18 33.1C9.67857 33.1 2.9 26.3214 2.9 18H-1.1C-1.1 28.5306 7.46943 37.1 18 37.1V33.1ZM2.9 18C2.9 9.67857 9.67857 2.9 18 2.9V-1.1C7.46943 -1.1 -1.1 7.46943 -1.1 18H2.9ZM18 -2C6.95343 -2 -2 6.95343 -2 18H2C2 9.16257 9.16257 2 18 2V-2ZM-2 18C-2 29.0466 6.95343 38 18 38V34C9.16257 34 2 26.8374 2 18H-2ZM18 38C29.0466 38 38 29.0466 38 18H34C34 26.8374 26.8374 34 18 34V38ZM38 18C38 6.95343 29.0466 -2 18 -2V2C26.8374 2 34 9.16257 34 18H38Z" fill="#EDEDED" mask="url(#path-1-inside-1_300_815)"/>
<g clip-path="url(#clip0_300_815)">
<path d="M12.1577 8.32446H23.7993C24.7948 8.32446 25.5998 9.05557 25.5998 9.95971V24.9927H10.3572V9.95971C10.3572 9.05557 11.1622 8.32446 12.1577 8.32446Z" stroke="#EDEDED" stroke-miterlimit="10"/>
<path d="M17.9785 8.32446V24.9927" stroke="#EDEDED" stroke-miterlimit="10"/>
<path d="M17.1116 24.7549H18.8454V26.5156C18.8454 26.7838 18.6073 27.0001 18.3119 27.0001H17.6451C17.3497 27.0001 17.1116 26.7838 17.1116 26.5156V24.7549Z" fill="#EDEDED"/>
<path d="M12.1055 11.5518H16.1733" stroke="#EDEDED" stroke-miterlimit="10" stroke-linecap="round"/>
<path d="M12.1055 12.8496H16.1733" stroke="#EDEDED" stroke-miterlimit="10" stroke-linecap="round"/>
<path d="M12.1055 14.1472H16.1733" stroke="#EDEDED" stroke-miterlimit="10" stroke-linecap="round"/>
<path d="M19.7314 11.5518H23.7993" stroke="#EDEDED" stroke-miterlimit="10" stroke-linecap="round"/>
<path d="M19.7314 12.8496H23.7993" stroke="#EDEDED" stroke-miterlimit="10" stroke-linecap="round"/>
<path d="M19.7314 14.1472H23.7993" stroke="#EDEDED" stroke-miterlimit="10" stroke-linecap="round"/>
<path d="M24.2615 24.7549H25.9953V26.5156C25.9953 26.7838 25.7572 27.0001 25.4618 27.0001H24.795C24.4996 27.0001 24.2615 26.7838 24.2615 26.5156V24.7549Z" fill="#EDEDED"/>
<path d="M10 24.7549H11.7338V26.5156C11.7338 26.7838 11.4957 27.0001 11.2004 27.0001H10.5335C10.2382 27.0001 10 26.7838 10 26.5156V24.7549Z" fill="#EDEDED"/>
<path d="M12.9152 15.7696C12.9152 15.4733 12.6507 15.2332 12.3245 15.2332C11.9983 15.2332 11.7339 15.4733 11.7339 15.7696V17.0631C11.7339 17.3593 11.9983 17.5995 12.3245 17.5995C12.6507 17.5995 12.9152 17.3593 12.9152 17.0631V15.7696Z" fill="#EDEDED"/>
<path d="M20.546 15.7696C20.546 15.4733 20.2816 15.2332 19.9554 15.2332C19.6292 15.2332 19.3647 15.4733 19.3647 15.7696V17.0631C19.3647 17.3593 19.6292 17.5995 19.9554 17.5995C20.2816 17.5995 20.546 17.3593 20.546 17.0631V15.7696Z" fill="#EDEDED"/>
</g>
<defs>
<clipPath id="clip0_300_815">
<rect width="16" height="19" fill="white" transform="translate(10 8)"/>
</clipPath>
</defs>
</svg>
