<svg width="24" height="24" viewBox="0 0 24 24" fill="none" xmlns="http://www.w3.org/2000/svg">
<path fill-rule="evenodd" clip-rule="evenodd" d="M12 0C18.6229 0 24 5.37711 24 12C24 18.6229 18.6229 24 12 24C5.37711 24 0 18.6229 0 12C0 5.37711 5.37711 0 12 0ZM8.24822 18.744V9.37267H5.13267V18.744H8.24822ZM19.4804 18.744V13.37C19.4804 10.4916 17.9436 9.15244 15.894 9.15244C14.2413 9.15244 13.5011 10.0613 13.0867 10.6996V9.37267H9.972C10.0133 10.252 9.972 18.744 9.972 18.744H13.0867V13.5104C13.0867 13.2302 13.1069 12.9502 13.1893 12.75C13.414 12.1904 13.9271 11.6109 14.7876 11.6109C15.9142 11.6109 16.3656 12.4707 16.3656 13.7298V18.7438H19.4804V18.744ZM6.71156 4.854C5.64556 4.854 4.94911 5.55489 4.94911 6.47333C4.94911 7.39178 5.62444 8.09267 6.67022 8.09267H6.69022C7.77644 8.09267 8.45267 7.37267 8.45267 6.47333C8.43244 5.55489 7.77644 4.854 6.71133 4.854H6.71156Z" fill="white"/>
</svg>
