<svg width="35" height="35" viewBox="0 0 35 35" fill="none" xmlns="http://www.w3.org/2000/svg">
<path fill-rule="evenodd" clip-rule="evenodd" d="M17.7143 0C27.1755 0 34.8571 7.68159 34.8571 17.1429C34.8571 26.6041 27.1755 34.2857 17.7143 34.2857C8.253 34.2857 0.571411 26.6041 0.571411 17.1429C0.571411 7.68159 8.253 0 17.7143 0ZM12.3546 26.7771V13.3895H7.90379V26.7771H12.3546ZM28.4006 26.7771V19.1C28.4006 14.9879 26.2051 13.0749 23.2771 13.0749C20.9162 13.0749 19.8587 14.3733 19.2666 15.2851V13.3895H14.8171C14.8762 14.6457 14.8171 26.7771 14.8171 26.7771H19.2666V19.3006C19.2666 18.9003 19.2955 18.5003 19.4133 18.2143C19.7343 17.4149 20.4673 16.587 21.6965 16.587C23.306 16.587 23.9508 17.8152 23.9508 19.614V26.7768H28.4006V26.7771ZM10.1593 6.93429C8.63649 6.93429 7.64157 7.93555 7.64157 9.24762C7.64157 10.5597 8.60633 11.561 10.1003 11.561H10.1289C11.6806 11.561 12.6466 10.5324 12.6466 9.24762C12.6178 7.93555 11.6806 6.93429 10.159 6.93429H10.1593Z" fill="white"/>
</svg>
