<svg width="190" height="47" viewBox="0 0 190 47" fill="none" xmlns="http://www.w3.org/2000/svg">
<g clip-path="url(#clip0_300_725)">
<path d="M39.3096 44.3891H39.7565C39.7245 45.0548 39.5832 45.5655 39.3278 45.9257C39.0725 46.2859 38.7259 46.4638 38.2791 46.4638C37.2167 46.4638 36.6877 45.4606 36.6877 43.4498C36.6877 41.4389 37.2167 40.4358 38.2791 40.4358C38.7579 40.4358 39.1226 40.6136 39.3734 40.9738C39.5969 41.293 39.7063 41.7125 39.7063 42.2323H39.2594C39.2594 41.822 39.1728 41.4982 38.9995 41.2474C38.8263 41.0012 38.5846 40.8735 38.2745 40.8735C37.5131 40.8735 37.13 41.7308 37.13 43.4452C37.13 45.1597 37.5131 46.0169 38.2745 46.0169C38.58 46.0169 38.8263 45.871 39.0041 45.5837C39.1819 45.2965 39.2822 44.8952 39.3096 44.3845" fill="white"/>
<path d="M41.676 44.7311V40.5361H42.1229V44.7265C42.1229 45.5929 42.4466 46.0261 43.0987 46.0261C43.7507 46.0261 44.0745 45.5929 44.0745 44.7265V40.5361H44.5213V44.7311C44.5213 45.8847 44.0471 46.4638 43.0987 46.4638C42.1502 46.4638 41.676 45.8847 41.676 44.7311Z" fill="white"/>
<path d="M49.2589 42.0318H48.812C48.812 41.2657 48.5156 40.8782 47.9183 40.8782C47.6265 40.8782 47.394 40.9785 47.2298 41.1745C47.0611 41.3706 46.979 41.6214 46.979 41.9223C46.979 42.4011 47.1888 42.7522 47.6083 42.9756C47.9958 43.1489 48.3789 43.3222 48.7664 43.5C49.1859 43.7599 49.3957 44.1794 49.3957 44.7585C49.3957 45.3376 49.2589 45.7297 48.9899 46.0261C48.7208 46.3179 48.3515 46.4684 47.8864 46.4684C46.9197 46.4684 46.4364 45.8893 46.4364 44.7357V44.5624H46.8833V44.7813C46.8833 45.1643 46.9699 45.4653 47.1386 45.6887C47.3073 45.9121 47.5535 46.0216 47.8727 46.0216C48.1919 46.0216 48.4655 45.9212 48.657 45.7252C48.8485 45.5291 48.9488 45.2327 48.9488 44.8406C48.9488 44.3664 48.7391 44.0198 48.3196 43.8055C47.932 43.6323 47.549 43.459 47.1614 43.2811C46.7419 43.0076 46.5322 42.5744 46.5322 41.9816C46.5322 41.5211 46.6553 41.1472 46.8969 40.8645C47.1432 40.5818 47.476 40.4404 47.9046 40.4404C48.8075 40.4404 49.2589 40.9694 49.2589 42.0318Z" fill="white"/>
<path d="M52.3094 46.368V40.9784H51.0281V40.5361H54.0421V40.9784H52.7562V46.368H52.3094Z" fill="white"/>
<path d="M56.2718 43.4498C56.2718 45.1642 56.6548 46.0215 57.4163 46.0215C58.1778 46.0215 58.5608 45.1642 58.5608 43.4498C58.5608 41.7353 58.1778 40.8781 57.4163 40.8781C56.6548 40.8781 56.2718 41.7353 56.2718 43.4498ZM55.825 43.4498C55.825 41.4389 56.3539 40.4358 57.4163 40.4358C58.4787 40.4358 59.0077 41.4389 59.0077 43.4498C59.0077 45.4606 58.4787 46.4638 57.4163 46.4638C56.3539 46.4638 55.825 45.4606 55.825 43.4498Z" fill="white"/>
<path d="M61.5885 40.9784V45.9258H62.3135C62.815 45.9258 63.1707 45.7525 63.3759 45.4014C63.5947 45.032 63.7042 44.3846 63.7042 43.4589C63.7042 42.5333 63.5947 41.8676 63.3759 41.4982C63.1707 41.1517 62.8196 40.9739 62.3135 40.9739H61.5885V40.9784ZM61.1416 46.368V40.5361H62.3408C63.0339 40.5361 63.5172 40.7824 63.7908 41.2794C64.0279 41.7171 64.1465 42.4375 64.1465 43.4498C64.1465 44.4621 64.0279 45.1871 63.7908 45.6202C63.5172 46.1173 63.0339 46.3635 62.3408 46.3635H61.1416V46.368Z" fill="white"/>
<path d="M66.7592 40.5361H66.3124V46.368H66.7592V40.5361Z" fill="white"/>
<path d="M69.5406 44.2249H71.091L70.3249 40.9419H70.3112L69.5452 44.2249H69.5406ZM68.5649 46.3634L70.0377 40.5315H70.594L72.0667 46.3634H71.5925L71.1867 44.6672H69.4403L69.0345 46.3634H68.5603H68.5649Z" fill="white"/>
<path d="M76.7131 43.4954C76.7131 43.2629 76.7815 43.0622 76.9229 42.8981C77.0642 42.7339 77.2329 42.6519 77.4336 42.6519C77.6342 42.6519 77.8029 42.7339 77.9443 42.8981C78.0856 43.0622 78.154 43.2583 78.154 43.4954C78.154 43.7325 78.0856 43.9286 77.9443 44.0927C77.8029 44.2569 77.6342 44.339 77.4336 44.339C77.2329 44.339 77.0642 44.2569 76.9229 44.0927C76.7815 43.9286 76.7131 43.7325 76.7131 43.4954Z" fill="white"/>
<path d="M83.1971 46.368V40.5361H85.664V40.9784H83.644V43.0987H85.5317V43.541H83.644V45.9258H85.7278V46.368H83.1971Z" fill="white"/>
<path d="M89.868 45.7617L89.3026 45.1233L89.5488 44.8132L90.0869 45.4242C90.2875 45.0002 90.3878 44.339 90.3878 43.4499C90.3878 41.7354 90.0048 40.8782 89.2433 40.8782C88.4819 40.8782 88.0988 41.7354 88.0988 43.4499C88.0988 45.1643 88.4819 46.0216 89.2433 46.0216C89.4941 46.0216 89.7039 45.9349 89.8726 45.7617M90.6477 46.6782L90.1462 46.1082C89.9091 46.3499 89.6081 46.4684 89.2433 46.4684C88.1855 46.4684 87.652 45.4653 87.652 43.4544C87.652 41.4436 88.1809 40.4404 89.2433 40.4404C90.3058 40.4404 90.8347 41.4436 90.8347 43.4544C90.8347 44.526 90.6842 45.3102 90.3833 45.7981L90.894 46.3681L90.6523 46.6782H90.6477Z" fill="white"/>
<path d="M92.8956 44.7311V40.5361H93.3425V44.7265C93.3425 45.5929 93.6662 46.0261 94.3183 46.0261C94.9703 46.0261 95.2941 45.5929 95.2941 44.7265V40.5361H95.7409V44.7311C95.7409 45.8847 95.2667 46.4638 94.3183 46.4638C93.3698 46.4638 92.8956 45.8847 92.8956 44.7311Z" fill="white"/>
<path d="M98.3217 40.5361H97.8749V46.368H98.3217V40.5361Z" fill="white"/>
<path d="M100.971 40.9784V43.3951H101.732C102.439 43.3951 102.795 42.9938 102.795 42.1868C102.795 41.3797 102.439 40.9784 101.732 40.9784H100.971ZM100.524 46.368V40.5361H101.869C102.781 40.5361 103.237 41.0879 103.237 42.1868C103.237 43.2857 102.731 43.8374 101.714 43.8374H100.966V46.368H100.52H100.524Z" fill="white"/>
<path d="M105.595 44.2249H107.145L106.379 40.9419H106.365L105.599 44.2249H105.595ZM104.619 46.3634L106.092 40.5315H106.648L108.121 46.3634H107.646L107.241 44.6672H105.494L105.088 46.3634H104.614H104.619Z" fill="white"/>
<path d="M109.94 46.368V40.5361H110.715L111.914 45.7114H111.928L113.127 40.5361H113.861V46.368H113.414V41.024L112.11 46.368H111.686L110.387 41.024V46.368H109.94Z" fill="white"/>
<path d="M116.552 40.5361H116.105V46.368H116.552V40.5361Z" fill="white"/>
<path d="M118.759 46.368V40.5361H121.225V40.9784H119.205V43.0987H121.093V43.541H119.205V45.9258H121.289V46.368H118.759Z" fill="white"/>
<path d="M123.25 46.368V40.5361H123.852L125.767 45.6157V40.5361H126.214V46.368H125.612L123.697 41.2885V46.368H123.25Z" fill="white"/>
<path d="M129.328 46.368V40.9784H128.042V40.5361H131.056V40.9784H129.775V46.368H129.328Z" fill="white"/>
<path d="M133.29 43.4498C133.29 45.1642 133.673 46.0215 134.435 46.0215C135.196 46.0215 135.579 45.1642 135.579 43.4498C135.579 41.7353 135.196 40.8781 134.435 40.8781C133.673 40.8781 133.29 41.7353 133.29 43.4498ZM132.844 43.4498C132.844 41.4389 133.373 40.4358 134.435 40.4358C135.497 40.4358 136.026 41.4389 136.026 43.4498C136.026 45.4606 135.497 46.4638 134.435 46.4638C133.373 46.4638 132.844 45.4606 132.844 43.4498Z" fill="white"/>
<path d="M141.028 43.4954C141.028 43.2629 141.097 43.0622 141.238 42.8981C141.379 42.7339 141.548 42.6519 141.749 42.6519C141.949 42.6519 142.118 42.7339 142.259 42.8981C142.401 43.0622 142.469 43.2583 142.469 43.4954C142.469 43.7325 142.401 43.9286 142.259 44.0927C142.118 44.2569 141.949 44.339 141.749 44.339C141.548 44.339 141.379 44.2569 141.238 44.0927C141.097 43.9286 141.028 43.7325 141.028 43.4954Z" fill="white"/>
<path d="M147.549 46.368V40.5361H148.324L149.523 45.7114H149.541L150.741 40.5361H151.47V46.368H151.023V41.024L149.724 46.368H149.3L147.996 41.024V46.368H147.549Z" fill="white"/>
<path d="M154.097 43.4498C154.097 45.1642 154.48 46.0215 155.241 46.0215C156.003 46.0215 156.386 45.1642 156.386 43.4498C156.386 41.7353 156.003 40.8781 155.241 40.8781C154.48 40.8781 154.097 41.7353 154.097 43.4498ZM153.65 43.4498C153.65 41.4389 154.179 40.4358 155.241 40.4358C156.304 40.4358 156.832 41.4389 156.832 43.4498C156.832 45.4606 156.304 46.4638 155.241 46.4638C154.179 46.4638 153.65 45.4606 153.65 43.4498Z" fill="white"/>
<path d="M159.413 43.541V45.9258H160.243C161.009 45.9258 161.392 45.5291 161.392 44.7357C161.392 43.9423 161.009 43.5456 160.243 43.5456H159.413V43.541ZM159.413 40.9784V43.1033H160.12C160.863 43.1033 161.237 42.7476 161.237 42.0408C161.237 41.6578 161.155 41.3888 160.986 41.2247C160.818 41.0605 160.558 40.9784 160.198 40.9784H159.418H159.413ZM158.966 46.368V40.5361H160.339C161.233 40.5361 161.679 41.024 161.679 41.9998C161.679 42.3008 161.616 42.5652 161.483 42.7932C161.347 43.0394 161.155 43.1945 160.909 43.2674V43.2857C161.21 43.3541 161.442 43.5182 161.602 43.7736C161.762 44.0289 161.839 44.3526 161.839 44.7357C161.839 45.2463 161.707 45.6476 161.438 45.9349C161.169 46.2221 160.804 46.368 160.334 46.368H158.966Z" fill="white"/>
<path d="M164.324 40.5361H163.877V46.368H164.324V40.5361Z" fill="white"/>
<path d="M166.526 46.368V40.5361H166.973V45.9258H169.039V46.368H166.526Z" fill="white"/>
<path d="M171.369 40.5361H170.922V46.368H171.369V40.5361Z" fill="white"/>
<path d="M174.155 44.2249H175.705L174.939 40.9419H174.926L174.159 44.2249H174.155ZM173.179 46.3634L174.652 40.5315H175.208L176.681 46.3634H176.207L175.801 44.6672H174.055L173.649 46.3634H173.175H173.179Z" fill="white"/>
<path d="M178.906 40.9784V43.2629H179.672C180.415 43.2629 180.789 42.8798 180.789 42.1184C180.789 41.3569 180.434 40.9739 179.722 40.9739H178.906V40.9784ZM178.459 46.368V40.5361H179.946C180.356 40.5361 180.671 40.6638 180.899 40.9237C181.122 41.1836 181.236 41.5393 181.236 41.9952C181.236 42.8479 180.935 43.3449 180.338 43.4726V43.4908C180.639 43.5228 180.858 43.6459 180.981 43.8602C181.108 44.0745 181.177 44.4119 181.186 44.8679L181.2 45.5063C181.209 45.9075 181.277 46.1948 181.409 46.3635H180.885C180.808 46.213 180.762 45.9394 180.753 45.5473L180.739 45.0594C180.725 44.5305 180.657 44.1794 180.538 43.997C180.402 43.8009 180.142 43.7006 179.75 43.7006H178.906V46.3635H178.459V46.368Z" fill="white"/>
<path d="M183.817 40.5361H183.37V46.368H183.817V40.5361Z" fill="white"/>
<path d="M186.425 43.4498C186.425 45.1642 186.808 46.0215 187.57 46.0215C188.331 46.0215 188.714 45.1642 188.714 43.4498C188.714 41.7353 188.331 40.8781 187.57 40.8781C186.808 40.8781 186.425 41.7353 186.425 43.4498ZM185.978 43.4498C185.978 41.4389 186.507 40.4358 187.57 40.4358C188.632 40.4358 189.161 41.4389 189.161 43.4498C189.161 45.4606 188.632 46.4638 187.57 46.4638C186.507 46.4638 185.978 45.4606 185.978 43.4498Z" fill="white"/>
<path d="M23.469 8.1665L26.0316 8.17562C29.1459 8.18474 31.6629 10.4692 31.6583 13.2871V30.9288C31.6492 33.7421 29.073 36.0265 25.9587 36.0174H23.4006C26.0179 36.0174 28.1884 34.0932 28.1975 31.7267L28.2066 12.4663C28.2112 10.0998 26.0954 8.17562 23.4736 8.1665" fill="white"/>
<path d="M18.2435 19.6253C16.5473 19.6253 15.1748 18.2528 15.1748 16.5566C15.1748 14.8603 16.5473 13.4878 18.2435 13.4878C19.9398 13.4878 21.3122 14.8603 21.3122 16.5566C21.3122 18.2528 19.9398 19.6253 18.2435 19.6253ZM23.3413 11.1213H0.916509C0.410377 11.1213 0 11.5317 0 12.0378V32.1281C0 32.6342 0.410377 33.0446 0.916509 33.0446H23.3413C23.8475 33.0446 24.2578 32.6342 24.2578 32.1281V12.0378C24.2578 11.5317 23.8475 11.1213 23.3413 11.1213Z" fill="white"/>
<path d="M36.5418 17.751C36.5418 15.0197 36.446 12.7262 36.3457 10.6743H41.4709L41.7627 14.1898H41.9086C43.0303 12.334 45.1779 10.1408 49.2315 10.1408C52.355 10.1408 54.7944 11.8963 55.8204 14.5318H55.9161C56.746 13.2141 57.7218 12.2383 58.7979 11.5543C60.1658 10.6241 61.6751 10.1362 63.6768 10.1362C67.58 10.1362 71.5834 12.8219 71.5834 20.4367V34.4442H65.7241V21.3167C65.7241 17.3634 64.3562 15.0197 61.479 15.0197C59.4317 15.0197 57.9179 16.4834 57.2795 18.1933C57.0834 18.7314 56.9877 19.5111 56.9877 20.195V34.4488H51.1284V20.6829C51.1284 17.3634 49.8106 15.0197 47.0292 15.0197C44.7858 15.0197 43.272 16.7752 42.6837 18.3894C42.4877 19.0232 42.3919 19.7071 42.3919 20.3911V34.4488H36.5327V17.7556L36.5418 17.751Z" fill="white"/>
<path d="M88.0851 22.8262C83.84 22.776 79.7864 23.656 79.7864 27.2674C79.7864 29.6111 81.3002 30.6826 83.2017 30.6826C85.6411 30.6826 87.351 29.1186 87.9347 27.4133C88.0806 26.9755 88.0806 26.5332 88.0806 26.0955V22.8262H88.0851ZM93.9444 28.731C93.9444 30.8787 94.0402 32.9762 94.3366 34.4398H88.9196L88.4818 31.8043H88.3359C86.9178 33.6601 84.4282 34.9779 81.3048 34.9779C76.5216 34.9779 73.8359 31.5125 73.8359 27.9012C73.8359 21.9461 79.1572 18.8729 87.9438 18.9185V18.5263C87.9438 16.9623 87.31 14.377 83.1105 14.377C80.7668 14.377 78.3273 15.1065 76.7177 16.1325L75.5458 12.2293C77.3059 11.1578 80.3792 10.1318 84.1364 10.1318C91.7512 10.1318 93.949 14.9652 93.949 20.1861V28.7265L93.9444 28.731Z" fill="white"/>
<path d="M103.853 0H97.8475V34.4443H103.853V0Z" fill="white"/>
<path d="M122.593 19.9946C122.643 17.7968 121.668 14.1855 117.664 14.1855C113.953 14.1855 112.393 17.5551 112.147 19.9946H122.593ZM112.147 24.1941C112.293 28.4894 115.662 30.3954 119.47 30.3954C122.251 30.3954 124.203 29.9576 126.059 29.3238L126.939 33.423C124.891 34.3031 122.055 34.9369 118.64 34.9369C110.929 34.9369 106.388 30.2039 106.388 22.8809C106.388 16.2921 110.391 10.0908 118.006 10.0908C125.621 10.0908 128.256 16.4334 128.256 21.6589C128.256 22.7806 128.161 23.7108 128.06 24.2443L112.147 24.1941Z" fill="white"/>
<path d="M137.531 4.57341V10.6743H143.24V15.1657H137.531V25.6577C137.531 28.585 138.311 30.0533 140.604 30.0533C141.68 30.0533 142.264 30.0031 142.948 29.807L143.044 34.344C142.164 34.686 140.554 34.9778 138.698 34.9778C136.455 34.9778 134.649 34.2437 133.523 33.0262C132.205 31.6583 131.622 29.4651 131.622 26.3371V15.1611H128.252V10.6698H131.622V6.22859L137.526 4.56885L137.531 4.57341Z" fill="white"/>
<path d="M159.737 19.9946C159.787 17.7968 158.811 14.1855 154.808 14.1855C151.096 14.1855 149.537 17.5551 149.291 19.9946H159.737ZM149.291 24.1941C149.437 28.4894 152.806 30.3954 156.614 30.3954C159.395 30.3954 161.347 29.9576 163.202 29.3238L164.078 33.423C162.031 34.3031 159.199 34.9369 155.779 34.9369C148.069 34.9369 143.527 30.2039 143.527 22.8809C143.527 16.2921 147.531 10.0908 155.145 10.0908C162.76 10.0908 165.396 16.4334 165.396 21.6589C165.396 22.7806 165.3 23.7108 165.2 24.2443L149.286 24.1941H149.291Z" fill="white"/>
<path d="M173.795 21.1162H173.89C174.479 20.1906 175.158 19.1646 175.746 18.2846L181.555 10.6698H188.778L179.941 20.3821L189.995 34.4398H182.622L175.792 23.9478L173.79 26.3416V34.4443H167.785V0H173.79V21.1162H173.795Z" fill="white"/>
</g>
<defs>
<clipPath id="clip0_300_725">
<rect width="190" height="46.6781" fill="white"/>
</clipPath>
</defs>
</svg>
