<svg width="18" height="19" viewBox="0 0 18 19" fill="none" xmlns="http://www.w3.org/2000/svg">
<path d="M8.58216 17.1643C3.85151 17.1643 0 13.3128 0 8.58216C0 3.85151 3.85151 0 8.58216 0C13.3128 0 17.1643 3.85151 17.1643 8.58216C17.1643 13.3128 13.3128 17.1643 8.58216 17.1643ZM8.58216 1.25593C4.53808 1.25593 1.25593 4.54645 1.25593 8.58216C1.25593 12.6179 4.53808 15.9084 8.58216 15.9084C12.6262 15.9084 15.9084 12.6179 15.9084 8.58216C15.9084 4.54645 12.6262 1.25593 8.58216 1.25593Z" fill="#767561"/>
<path d="M17.3742 18.0015C17.2151 18.0015 17.056 17.9429 16.9304 17.8173L15.2558 16.1427C15.013 15.8999 15.013 15.498 15.2558 15.2552C15.4987 15.0124 15.9005 15.0124 16.1434 15.2552L17.8179 16.9298C18.0607 17.1726 18.0607 17.5745 17.8179 17.8173C17.6923 17.9429 17.5333 18.0015 17.3742 18.0015Z" fill="#767561"/>
</svg>
