<svg width="34" height="34" viewBox="0 0 34 34" fill="none" xmlns="http://www.w3.org/2000/svg">
<g clip-path="url(#clip0_550_1005)">
<path d="M24.3602 14.71C24.3602 10.29 20.4701 6.78 15.9201 7.42C13.4301 7.77 11.2802 9.46 10.2702 11.76C9.89015 12.63 9.69015 13.48 9.64015 14.29C9.57015 15.49 9.90015 16.68 10.4801 17.75L14.9401 26.04C15.8501 27.63 18.1401 27.63 19.0501 26.04L23.5302 17.72C24.0202 16.8 24.3602 15.78 24.3602 14.74C24.3602 14.74 24.3602 14.73 24.3602 14.72V14.71Z" stroke="#434343" stroke-width="2" stroke-linejoin="round"/>
<path d="M16.9996 17.29C18.6233 17.29 19.9396 15.9737 19.9396 14.35C19.9396 12.7263 18.6233 11.41 16.9996 11.41C15.3759 11.41 14.0596 12.7263 14.0596 14.35C14.0596 15.9737 15.3759 17.29 16.9996 17.29Z" stroke="#434343" stroke-width="2" stroke-linejoin="round"/>
<path d="M17 33C25.8366 33 33 25.8366 33 17C33 8.16344 25.8366 1 17 1C8.16344 1 1 8.16344 1 17C1 25.8366 8.16344 33 17 33Z" stroke="#434343" stroke-width="2" stroke-linejoin="round"/>
</g>
<defs>
<clipPath id="clip0_550_1005">
<rect width="34" height="34" fill="white"/>
</clipPath>
</defs>
</svg>
