<svg width="25" height="25" viewBox="0 0 25 25" fill="none" xmlns="http://www.w3.org/2000/svg">
<path d="M7.4 21.1C8.9 22 10.7 22.5 12.5 22.5C18 22.5 22.5 18 22.5 12.5C22.5 7 18 2.5 12.5 2.5C7 2.5 2.5 7 2.5 12.5C2.5 14.3 3 16 3.8 17.5L2.94 20.806C2.89563 20.9767 2.89718 21.156 2.9445 21.3259C2.99181 21.4958 3.08321 21.6501 3.20941 21.7733C3.33562 21.8965 3.49215 21.9841 3.66313 22.0272C3.83411 22.0704 4.01347 22.0675 4.183 22.019L7.4 21.1Z" stroke="white" stroke-width="1.5" stroke-miterlimit="10" stroke-linecap="round" stroke-linejoin="round"/>
<path d="M17 15.348C17 15.51 16.964 15.677 16.887 15.839C16.8084 16.0064 16.7053 16.1611 16.581 16.298C16.36 16.541 16.117 16.716 15.841 16.829C15.571 16.942 15.278 17 14.963 17C14.503 17 14.012 16.892 13.493 16.672C12.9443 16.4341 12.4243 16.1349 11.943 15.78C11.4195 15.3976 10.9254 14.9764 10.465 14.52C10.0095 14.0621 9.58926 13.5704 9.208 13.049C8.85762 12.5719 8.56115 12.0574 8.324 11.515C8.108 11 8 10.51 8 10.043C8 9.737 8.054 9.445 8.162 9.175C8.27 8.9 8.442 8.648 8.681 8.423C8.969 8.139 9.284 8 9.618 8C9.744 8 9.87 8.027 9.983 8.081C10.1 8.135 10.203 8.216 10.285 8.333L11.331 9.805C11.411 9.917 11.471 10.021 11.511 10.12C11.551 10.214 11.574 10.309 11.574 10.394C11.5727 10.5074 11.5398 10.6182 11.479 10.714C11.4096 10.8311 11.3248 10.9383 11.227 11.033L10.884 11.389C10.8601 11.4123 10.8414 11.4404 10.829 11.4714C10.8166 11.5024 10.8108 11.5356 10.812 11.569C10.812 11.604 10.817 11.636 10.826 11.672C10.839 11.708 10.853 11.735 10.862 11.762C10.942 11.911 11.082 12.104 11.281 12.338C11.484 12.572 11.7 12.811 11.934 13.049C12.178 13.288 12.412 13.508 12.651 13.711C12.885 13.908 13.079 14.043 13.232 14.124L13.314 14.161C13.3499 14.1738 13.3879 14.1799 13.426 14.179C13.4605 14.1797 13.4948 14.1733 13.5266 14.16C13.5585 14.1468 13.5872 14.127 13.611 14.102L13.953 13.764C14.066 13.652 14.174 13.567 14.278 13.512C14.3736 13.4511 14.4846 13.4185 14.598 13.418C14.6927 13.4194 14.7861 13.4394 14.873 13.477C14.972 13.517 15.076 13.575 15.188 13.652L16.68 14.71C16.7881 14.7803 16.8741 14.8798 16.928 14.997C16.9747 15.1082 16.9992 15.2274 17 15.348Z" stroke="white" stroke-width="1.5" stroke-miterlimit="10"/>
</svg>
