<svg width="43" height="42" viewBox="0 0 43 42" fill="none" xmlns="http://www.w3.org/2000/svg">
<path fill-rule="evenodd" clip-rule="evenodd" d="M34.8599 7.93713C31.4142 4.48744 26.8319 2.58684 21.9498 2.58484C11.8904 2.58484 3.70306 10.7715 3.69914 20.834C3.69773 24.0507 4.53813 27.1903 6.13529 29.958L3.54608 39.4152L13.221 36.8774C15.8866 38.3313 18.888 39.0977 21.9425 39.0988H21.9499C21.9493 39.0988 21.9505 39.0988 21.9499 39.0988C32.0083 39.0988 40.1962 30.9113 40.2005 20.8486C40.2022 15.972 38.3056 11.3867 34.8599 7.93713ZM21.9498 36.0165H21.9437C19.2219 36.0155 16.5521 35.2841 14.2231 33.9021L13.6693 33.5734L7.92803 35.0794L9.46051 29.4818L9.0998 28.9078C7.58139 26.4927 6.77944 23.7012 6.78063 20.835C6.78389 12.4715 13.5889 5.66722 21.956 5.66722C26.0076 5.66848 29.8163 7.24845 32.6803 10.1157C35.5442 12.9829 37.1205 16.7941 37.1189 20.8473C37.1155 29.2115 30.3107 36.0165 21.9498 36.0165Z" fill="#F9F9F9"/>
<path fill-rule="evenodd" clip-rule="evenodd" d="M30.2704 24.6557C29.8144 24.4274 27.5724 23.3244 27.1544 23.1721C26.7364 23.0199 26.4324 22.9438 26.1284 23.4003C25.8245 23.8568 24.9505 24.884 24.6845 25.1884C24.4185 25.4926 24.1524 25.5309 23.6965 25.3024C23.2405 25.0742 21.7712 24.5927 20.0294 23.0391C18.6737 21.8298 17.7585 20.3366 17.4924 19.88C17.2264 19.4235 17.4641 19.1768 17.6924 18.9493C17.8976 18.7449 18.1485 18.4167 18.3765 18.1504C18.6045 17.8842 18.6805 17.6938 18.8325 17.3897C18.9845 17.0853 18.9086 16.819 18.7945 16.5908C18.6805 16.3626 17.7685 14.118 17.3885 13.2048C17.0183 12.3157 16.6424 12.4362 16.3624 12.422C16.0968 12.4087 15.7924 12.406 15.4885 12.406C15.1845 12.406 14.6904 12.5202 14.2725 12.9766C13.8545 13.4332 12.6763 14.5365 12.6763 16.7808C12.6763 19.0255 14.3104 21.1939 14.5384 21.4982C14.7664 21.8026 17.754 26.4085 22.3285 28.3838C23.4165 28.8537 24.2659 29.1343 24.9281 29.3444C26.0206 29.6915 27.0147 29.6425 27.8004 29.5251C28.6766 29.3942 30.4985 28.422 30.8784 27.3569C31.2585 26.2916 31.2585 25.3784 31.1444 25.1883C31.0304 24.9982 30.7264 24.884 30.2704 24.6557Z" fill="#F9F9F9"/>
</svg>
