<svg width="35" height="35" viewBox="0 0 35 35" fill="none" xmlns="http://www.w3.org/2000/svg">
<g clip-path="url(#clip0_414_993)">
<path fill-rule="evenodd" clip-rule="evenodd" d="M17.8572 0C27.32 0 35 7.68 35 17.1429C35 26.6057 27.32 34.2857 17.8572 34.2857C8.39429 34.2857 0.714294 26.6057 0.714294 17.1429C0.714294 7.68 8.39429 0 17.8572 0ZM28.1223 11.9863C27.8754 11.0674 27.1486 10.3406 26.2297 10.0937C24.5566 9.648 17.8572 9.648 17.8572 9.648C17.8572 9.648 11.1577 9.648 9.48458 10.0937C8.56572 10.3406 7.83887 11.0674 7.59201 11.9863C7.14629 13.6594 7.14629 17.1429 7.14629 17.1429C7.14629 17.1429 7.14629 20.6263 7.59201 22.2994C7.83887 23.2183 8.56572 23.9451 9.48458 24.192C11.1577 24.6377 17.8572 24.6377 17.8572 24.6377C17.8572 24.6377 24.5566 24.6377 26.2297 24.192C27.1486 23.9451 27.8754 23.2183 28.1223 22.2994C28.568 20.6263 28.568 17.1429 28.568 17.1429C28.568 17.1429 28.568 13.6594 28.1223 11.9863ZM15.7109 20.3589V13.9269L21.2789 17.1429L15.7109 20.3589Z" fill="white"/>
</g>
<defs>
<clipPath id="clip0_414_993">
<rect width="34.2857" height="34.2857" fill="white" transform="translate(0.714294)"/>
</clipPath>
</defs>
</svg>
