<svg width="24" height="24" viewBox="0 0 24 24" fill="none" xmlns="http://www.w3.org/2000/svg">
<g clip-path="url(#clip0_300_813)">
<path fill-rule="evenodd" clip-rule="evenodd" d="M12 0C18.624 0 24 5.376 24 12C24 18.624 18.624 24 12 24C5.376 24 0 18.624 0 12C0 5.376 5.376 0 12 0ZM19.1856 8.3904C19.0128 7.7472 18.504 7.2384 17.8608 7.0656C16.6896 6.7536 12 6.7536 12 6.7536C12 6.7536 7.3104 6.7536 6.1392 7.0656C5.496 7.2384 4.9872 7.7472 4.8144 8.3904C4.5024 9.5616 4.5024 12 4.5024 12C4.5024 12 4.5024 14.4384 4.8144 15.6096C4.9872 16.2528 5.496 16.7616 6.1392 16.9344C7.3104 17.2464 12 17.2464 12 17.2464C12 17.2464 16.6896 17.2464 17.8608 16.9344C18.504 16.7616 19.0128 16.2528 19.1856 15.6096C19.4976 14.4384 19.4976 12 19.4976 12C19.4976 12 19.4976 9.5616 19.1856 8.3904ZM10.4976 14.2512V9.7488L14.3952 12L10.4976 14.2512Z" fill="white"/>
</g>
<defs>
<clipPath id="clip0_300_813">
<rect width="24" height="24" fill="white"/>
</clipPath>
</defs>
</svg>
