<?xml version="1.0" standalone="no"?>
<!DOCTYPE svg PUBLIC "-//W3C//DTD SVG 1.1//EN" "http://www.w3.org/Graphics/SVG/1.1/DTD/svg11.dtd" >
<svg xmlns="http://www.w3.org/2000/svg" xmlns:xlink="http://www.w3.org/1999/xlink" version="1.1">
<metadata></metadata>
<defs>
<font id="quakerregular" horiz-adv-x="1355" >
<font-face units-per-em="2048" ascent="1536" descent="-512" />
<missing-glyph horiz-adv-x="409" />
<glyph horiz-adv-x="0" />
<glyph horiz-adv-x="682" />
<glyph unicode=" "  horiz-adv-x="409" />
<glyph unicode="&#x09;" horiz-adv-x="409" />
<glyph unicode="&#xa0;" horiz-adv-x="409" />
<glyph unicode="!" horiz-adv-x="716" d="M123 1536h471l-102 -1014h-267zM133 199q0 98 64 161.5t161 63.5t161.5 -63.5t64.5 -161.5t-64.5 -162t-161.5 -64t-161 64t-64 162z" />
<glyph unicode="&#x22;" horiz-adv-x="1019" d="M133 1536h336l-59 -600h-217zM551 1536h336l-60 -600h-217z" />
<glyph unicode="$" horiz-adv-x="1171" d="M61 35v403h21q44 -65 121.5 -95t224.5 -34l53 277l-41 14q-193 67 -282.5 180t-89.5 281v39q0 230 142.5 346.5t451.5 116.5h10l41 204h123l-41 -208q108 -11 243 -46v-389h-20q-44 52 -111.5 76t-177.5 27l-47 -250l45 -14q204 -70 293.5 -181.5t89.5 -271.5v-51 q0 -251 -143.5 -368.5t-440.5 -117.5h-32h-9l-39 -204h-122l41 213q-186 17 -304 53zM477 1124q0 -33 18.5 -57t71.5 -47l39 203q-69 -7 -99 -31t-30 -68zM553 313q137 18 137 115q0 40 -19.5 65.5t-72.5 49.5z" />
<glyph unicode="%" horiz-adv-x="1722" d="M41 1087v140q0 336 387 336h8q387 0 387 -336v-140q0 -335 -387 -335h-8q-387 0 -387 335zM285 0l962 1536h191l-963 -1536h-190zM346 1081q0 -67 19.5 -92.5t66.5 -25.5t66.5 25.5t19.5 92.5v152q0 68 -19.5 93.5t-66.5 25.5t-66.5 -25.5t-19.5 -93.5v-152zM899 309v140 q0 335 387 335h8q387 0 387 -335v-140q0 -336 -387 -336h-8q-387 0 -387 336zM1204 303q0 -68 19.5 -93.5t66.5 -25.5t66.5 25.5t19.5 93.5v152q0 67 -19.5 92.5t-66.5 25.5t-66.5 -25.5t-19.5 -92.5v-152z" />
<glyph unicode="&#x26;" horiz-adv-x="1517" d="M51 422v59q0 156 60 255.5t192 140.5q-65 124 -65 243v17q0 196 128.5 311t370.5 115h15q168 0 358 -47v-404h-20q-53 60 -116 87.5t-161 27.5q-97 0 -136.5 -28t-39.5 -81q0 -68 70 -155l311 -392v4v60q0 136 -17.5 189t-64.5 77v21h500v-21q-47 -25 -62.5 -77 t-15.5 -189v-27q0 -200 -101 -340l82 -100q98 -124 158 -148v-20h-174q-103 0 -174.5 14.5t-130.5 51.5q-87 -43 -196 -68t-214 -25q-270 0 -413.5 116t-143.5 333zM451 467q0 -201 208 -201q61 0 111 17l-291 354q-28 -38 -28 -100v-70z" />
<glyph unicode="'" horiz-adv-x="602" d="M133 1536h336l-59 -600h-217z" />
<glyph unicode="*" horiz-adv-x="868" d="M51 1163l82 254l225 -135l-57 254h266l-57 -254l225 135l82 -254l-260 -24l193 -168l-215 -158l-101 234l-100 -234l-215 158l192 168z" />
<glyph unicode="," horiz-adv-x="581" d="M82 182q0 92 59 150.5t150 58.5q93 0 151 -62.5t58 -172.5q0 -142 -110.5 -258t-289.5 -160l-8 22q113 67 158 217q-75 12 -121.5 68.5t-46.5 136.5z" />
<glyph unicode="-" horiz-adv-x="731" d="M72 616v336h587v-336h-587z" />
<glyph unicode="." horiz-adv-x="581" d="M82 182q0 92 59 150.5t150 58.5t150 -58.5t59 -150.5t-59 -150.5t-150 -58.5t-150 58.5t-59 150.5z" />
<glyph unicode="/" horiz-adv-x="962" d="M0 -143l676 1822h287l-676 -1822h-287z" />
<glyph unicode="0" d="M82 463v610q0 246 140.5 368t430.5 122h49q290 0 431 -122t141 -368v-610q0 -246 -141 -368t-431 -122h-49q-290 0 -430.5 122t-140.5 368zM510 457q0 -87 38.5 -128.5t129.5 -41.5t129.5 41.5t38.5 128.5v622q0 87 -38.5 128.5t-129.5 41.5t-129.5 -41.5t-38.5 -128.5 v-622z" />
<glyph unicode="1" horiz-adv-x="944" d="M119 1427v21l532 115h35v-1276q0 -96 11.5 -150t33.5 -78.5t64 -38.5v-20h-656v20q48 18 71.5 42t35.5 76t12 149v884q0 98 -12 146.5t-39.5 70.5t-87.5 39z" />
<glyph unicode="2" horiz-adv-x="1189" d="M55 0v406q0 183 79 297.5t253 173.5l84 28q99 34 140.5 75.5t41.5 106.5v3q0 65 -50 101t-152 36q-126 0 -211 -27.5t-142 -87.5h-20v401q90 22 210.5 36t221.5 14h35q254 0 395 -121t141 -322v-39q0 -205 -88.5 -323t-275.5 -183l-90 -30q-78 -26 -111 -65.5t-33 -104.5 v-72h322q130 0 182.5 19t89.5 69h21v-391h-1043z" />
<glyph unicode="3" horiz-adv-x="1241" d="M123 20v404h20q53 -60 139.5 -87.5t243.5 -27.5q222 0 222 154v6q0 86 -42.5 123t-140.5 37h-186v313h172q90 0 134 32t44 103v10q0 140 -217 140q-257 0 -362 -115h-21v404q190 47 438 47h43q256 0 393.5 -112t137.5 -298v-35q0 -118 -59 -205t-162 -116 q122 -26 189 -113t67 -217v-57q0 -215 -146.5 -326t-431.5 -111h-68q-201 0 -407 47z" />
<glyph unicode="4" horiz-adv-x="1345" d="M31 334v284l600 918h463v-899h41q38 0 64 17.5t44 60.5h21v-459h-21q-18 43 -44 60.5t-64 17.5h-41v-47q0 -135 20.5 -189t75.5 -78v-20h-621v20q55 24 76 78t21 189v47h-635zM406 637h260v418z" />
<glyph unicode="5" horiz-adv-x="1202" d="M102 20v404h21q58 -61 139 -88t219 -27q124 0 180 40t56 128v6q0 89 -56.5 131.5t-179.5 42.5q-168 0 -360 -73l-19 2l39 950h938v-412h-20q-37 50 -90 69t-183 19h-270l-10 -270q116 43 237 43q193 0 297.5 -112t104.5 -300v-108q0 -492 -602 -492h-17q-218 0 -424 47z " />
<glyph unicode="6" horiz-adv-x="1302" d="M82 463v608q0 248 143.5 370t448.5 122h26q237 0 424 -47v-404h-20q-58 61 -135 88t-197 27q-153 0 -207.5 -39.5t-54.5 -134.5v-191q118 148 319 148q190 0 301 -106.5t111 -282.5v-158q0 -245 -139 -367.5t-422 -122.5h-37q-283 0 -422 122.5t-139 367.5zM510 461 q0 -91 31.5 -131.5t120.5 -40.5t120 40.5t31 131.5v61q0 91 -31 131.5t-120 40.5t-152 -69v-164z" />
<glyph unicode="7" horiz-adv-x="1126" d="M57 1124v412h1039v-283q-203 -261 -290 -551.5t-87 -701.5h-447q0 337 132.5 675.5t336.5 536.5h-391q-130 0 -182.5 -19t-89.5 -69h-21z" />
<glyph unicode="8" horiz-adv-x="1347" d="M66 410v57q0 130 67 217t189 113q-103 29 -162.5 116t-59.5 205v35q0 186 138.5 298t396.5 112h78q258 0 396 -112t138 -298v-35q0 -118 -59 -205t-162 -116q122 -26 189 -113t67 -217v-57q0 -215 -143.5 -326t-415.5 -111h-98q-272 0 -415.5 111t-143.5 326zM494 442 q0 -90 43.5 -133t136.5 -43t136.5 43t43.5 133v17q0 90 -43.5 133t-136.5 43t-136.5 -43t-43.5 -133v-17zM512 1092q0 -79 39 -118.5t123 -39.5t123 39.5t39 118.5v20q0 79 -39 118.5t-123 39.5t-123 -39.5t-39 -118.5v-20z" />
<glyph unicode="9" horiz-adv-x="1302" d="M61 928v145q0 490 562 490h36q562 0 562 -490v-608q0 -248 -143.5 -370t-448.5 -122h-70q-247 0 -434 47v404h20q58 -61 142.5 -88t230.5 -27q151 0 213 46t62 128v201q-118 -145 -320 -145q-190 0 -301 106.5t-111 282.5zM489 1026q0 -91 31.5 -131.5t120.5 -40.5 q88 0 152 70v151q0 91 -31.5 131.5t-120.5 40.5t-120.5 -40.5t-31.5 -131.5v-49z" />
<glyph unicode=":" horiz-adv-x="622" d="M102 182q0 92 59 150.5t150 58.5t150 -58.5t59 -150.5t-59 -150.5t-150 -58.5t-150 58.5t-59 150.5zM102 756q0 92 59 150.5t150 58.5t150 -58.5t59 -150.5t-59 -150.5t-150 -58.5t-150 58.5t-59 150.5z" />
<glyph unicode=";" horiz-adv-x="622" d="M102 182q0 92 59 150.5t150 58.5q93 0 151 -62.5t58 -172.5q0 -142 -110 -258t-289 -160l-8 22q111 66 157 217q-75 12 -121.5 68.5t-46.5 136.5zM102 756q0 92 59 150.5t150 58.5t150 -58.5t59 -150.5t-59 -150.5t-150 -58.5t-150 58.5t-59 150.5z" />
<glyph unicode="?" horiz-adv-x="1183" d="M82 1112v404q219 47 414 47h34q315 0 448.5 -117t133.5 -375v-37q0 -211 -125.5 -317.5t-357.5 -106.5h-8l-54 -88h-245v381h184q178 0 178 150v10q0 95 -55 129.5t-201 34.5q-217 0 -326 -115h-20zM219 199q0 98 64 161.5t161 63.5t161.5 -63.5t64.5 -161.5t-64.5 -162 t-161.5 -64t-161 64t-64 162z" />
<glyph unicode="@" horiz-adv-x="2066" d="M82 0v901q0 334 153 484.5t488 150.5h620q335 0 488.5 -150.5t153.5 -484.5v-551q0 -172 -102 -261t-300 -89h-82q-247 0 -327 150q-56 -85 -148 -131t-201 -46h-14q-156 0 -240 106t-84 314v361q0 208 84 314t240 106h14q93 0 170.5 -39.5t128.5 -118.5l9 131h423v-795 q0 -104 99 -104q98 0 98 104v549q0 241 -93 346t-317 105h-620q-224 0 -317 -105t-93 -346v-901h-231zM938 391q0 -54 20 -78t64 -24t64 24t20 78v426q-47 41 -84 41q-44 0 -64 -24t-20 -78v-365z" />
<glyph unicode="A" horiz-adv-x="1406" d="M0 0v20q39 22 62.5 82.5t60.5 229.5l201 921q22 101 25 152q1 10 1 19q0 36 -10 54q-12 22 -45 38v20h817v-20q-33 -16 -45 -38q-10 -18 -10 -54q0 -9 1 -19q3 -51 25 -152l201 -921q37 -169 60.5 -229.5t62.5 -82.5v-20h-598v20q52 22 62 64q3 13 3 34q0 42 -14 111 l-18 95h-359l-16 -95q-14 -70 -14 -111q0 -20 3 -34q10 -42 62 -64v-20h-518zM547 655h231l-114 611z" />
<glyph unicode="B" horiz-adv-x="1386" d="M82 0v20q35 17 53 43t26.5 78.5t8.5 145.5v962q0 93 -8.5 145.5t-26.5 78.5t-53 43v20h711q245 0 367 -104.5t122 -301.5v-43q0 -109 -65 -190.5t-175 -110.5q132 -30 197.5 -110.5t65.5 -218.5v-15q0 -226 -118 -334t-368 -108h-737zM598 279h117q87 0 124.5 36.5 t37.5 120.5v41q0 84 -37.5 121t-124.5 37h-117v-356zM598 913h94q87 0 124.5 37t37.5 121v29q0 84 -37.5 120.5t-124.5 36.5h-94v-344z" />
<glyph unicode="C" horiz-adv-x="1167" d="M82 463v608q0 247 140.5 369.5t432.5 122.5h15q189 0 385 -47v-404h-21q-57 60 -127.5 87.5t-169.5 27.5q-130 0 -178.5 -40t-48.5 -134v-570q0 -94 48.5 -134t178.5 -40q100 0 170 27t127 88h21v-404q-196 -47 -385 -47h-15q-291 0 -432 122t-141 368z" />
<glyph unicode="D" horiz-adv-x="1413" d="M82 0v20q35 17 53 43t26.5 78.5t8.5 145.5v962q0 93 -8.5 145.5t-26.5 78.5t-53 43v20h678q290 0 430.5 -121.5t140.5 -367.5v-558q0 -239 -134 -361t-409 -128h-706zM598 303h137q91 0 129.5 41.5t38.5 128.5v590q0 87 -38.5 128.5t-129.5 41.5h-137v-930z" />
<glyph unicode="E" horiz-adv-x="1290" d="M82 0v20q35 17 53 43t26.5 78.5t8.5 145.5v962q0 93 -8.5 145.5t-26.5 78.5t-53 43v20h1075v-391h-20q-37 50 -90 69t-183 19h-266v-299h84q134 0 185.5 15.5t86.5 62.5h21v-459h-21q-35 47 -86.5 62.5t-185.5 15.5h-84v-328h281q130 0 182.5 19t89.5 69h20v-391h-1089z " />
<glyph unicode="F" horiz-adv-x="1222" d="M82 0v20q35 17 53 43t26.5 78.5t8.5 145.5v962q0 93 -8.5 145.5t-26.5 78.5t-53 43v20h1061v-391h-21q-37 50 -89.5 69t-182.5 19h-252v-359h92q134 0 186 15.5t87 62.5h20v-458h-20q-34 47 -86.5 62t-186.5 15h-92v-284q0 -137 24 -188.5t95 -78.5v-20h-635z" />
<glyph unicode="G" horiz-adv-x="1302" d="M82 463v608q0 247 140.5 369.5t432.5 122.5h47q223 0 418 -47v-404h-20q-57 60 -140.5 87.5t-209.5 27.5q-138 0 -189 -40t-51 -134v-592q0 -89 36.5 -130.5t112.5 -41.5q80 0 134 10v193q0 93 -8.5 145t-26.5 78t-53 43v20h552v-20q-46 -25 -61.5 -76.5t-15.5 -189.5 v-424q-95 -37 -246 -66t-258 -29h-21q-291 0 -432 122t-141 368z" />
<glyph unicode="H" horiz-adv-x="1519" d="M82 0v20q35 17 53 43t26.5 78.5t8.5 145.5v962q0 93 -8.5 145.5t-26.5 78.5t-53 43v20h598v-20q-47 -24 -64.5 -77.5t-17.5 -189.5v-299h324v299q0 136 -17.5 189.5t-64.5 77.5v20h598v-20q-35 -17 -53 -43t-26.5 -78.5t-8.5 -145.5v-962q0 -93 8.5 -145.5t26.5 -78.5 t53 -43v-20h-598v20q47 24 64.5 77.5t17.5 189.5v319h-324v-319q0 -136 17.5 -189.5t64.5 -77.5v-20h-598z" />
<glyph unicode="I" horiz-adv-x="768" d="M82 0v20q35 17 53 43t26.5 78.5t8.5 145.5v962q0 93 -8.5 145.5t-26.5 78.5t-53 43v20h604v-20q-35 -17 -53 -43t-26.5 -78.5t-8.5 -145.5v-962q0 -93 8.5 -145.5t26.5 -78.5t53 -43v-20h-604z" />
<glyph unicode="J" horiz-adv-x="1015" d="M72 12v389h20q35 -50 78 -70t113 -20q81 0 118 39t37 123v778q0 91 -13 142.5t-36 76t-70 46.5v20h635v-20q-35 -17 -53 -43t-26.5 -78.5t-8.5 -145.5v-807q0 -469 -510 -469h-12q-130 0 -272 39z" />
<glyph unicode="K" horiz-adv-x="1437" d="M82 0v20q35 17 53 43t26.5 78.5t8.5 145.5v962q0 93 -8.5 145.5t-26.5 78.5t-53 43v20h598v-20q-47 -24 -64.5 -77.5t-17.5 -189.5v-270l223 379q37 64 37 104q0 37 -31 54v20h594v-20q-36 -14 -71.5 -50.5t-89.5 -119.5l-252 -390l299 -725q44 -105 72 -149t59 -62v-20 h-598v20q47 20 47 74q0 35 -19 84l-153 406l-117 -176v-121q0 -136 17.5 -189.5t64.5 -77.5v-20h-598z" />
<glyph unicode="L" horiz-adv-x="1187" d="M82 0v20q35 17 53 43t26.5 78.5t8.5 145.5v962q0 93 -8.5 145.5t-26.5 78.5t-53 43v20h635v-20q-47 -22 -70 -47t-36 -76.5t-13 -143.5v-946h225q130 0 183 19t90 69h20v-391h-1034z" />
<glyph unicode="M" horiz-adv-x="1835" d="M82 0v20q35 17 53 43t26.5 78.5t8.5 145.5v962q0 93 -8.5 145.5t-26.5 78.5t-53 43v20h672l196 -569l197 569h606v-20q-35 -17 -53 -43t-26.5 -78.5t-8.5 -145.5v-962q0 -93 8.5 -145.5t26.5 -78.5t53 -43v-20h-598v20q47 24 64.5 77.5t17.5 189.5v690l-324 -977h-45 l-323 977v-690q0 -136 17.5 -189.5t64.5 -77.5v-20h-545z" />
<glyph unicode="N" horiz-adv-x="1460" d="M82 0v20q35 17 53 43t26.5 78.5t8.5 145.5v962q0 93 -8.5 145.5t-26.5 78.5t-53 43v20h518l326 -739v452q0 136 -17.5 189.5t-64.5 77.5v20h545v-20q-35 -17 -53 -43t-27 -78.5t-9 -145.5v-1249h-378l-377 813v-526q0 -136 17.5 -189.5t64.5 -77.5v-20h-545z" />
<glyph unicode="O" d="M82 463v610q0 246 140.5 368t430.5 122h49q290 0 431 -122t141 -368v-610q0 -246 -141 -368t-431 -122h-49q-290 0 -430.5 122t-140.5 368zM510 457q0 -87 38.5 -128.5t129.5 -41.5t129.5 41.5t38.5 128.5v622q0 87 -38.5 128.5t-129.5 41.5t-129.5 -41.5t-38.5 -128.5 v-622z" />
<glyph unicode="P" horiz-adv-x="1349" d="M82 0v20q35 17 53 43t26.5 78.5t8.5 145.5v962q0 93 -8.5 145.5t-26.5 78.5t-53 43v20h747q238 0 351.5 -106t113.5 -324v-154q0 -218 -113.5 -324t-351.5 -106h-231v-235q0 -137 24 -188.5t95 -78.5v-20h-635zM598 799h107q86 0 123.5 43.5t37.5 140.5v90 q0 97 -37.5 140.5t-123.5 43.5h-107v-458z" />
<glyph unicode="Q" d="M82 463v610q0 246 140.5 368t430.5 122h49q290 0 431 -122t141 -368v-610q0 -314 -230 -426l68 -115q41 -72 70 -104t67 -49v-19h-235q-128 0 -189.5 36.5t-113.5 145.5l-21 41h-37q-290 0 -430.5 122t-140.5 368zM510 457q0 -87 38.5 -128.5t129.5 -41.5t129.5 41.5 t38.5 128.5v622q0 87 -38.5 128.5t-129.5 41.5t-129.5 -41.5t-38.5 -128.5v-622z" />
<glyph unicode="R" horiz-adv-x="1411" d="M82 0v20q35 17 53 43t26.5 78.5t8.5 145.5v962q0 93 -8.5 145.5t-26.5 78.5t-53 43v20h766q238 0 351.5 -106t113.5 -324v-78q0 -146 -55 -240t-171 -145l166 -412q41 -99 72 -145t66 -66v-20h-584v20q39 19 42 48v6q0 32 -28 119l-137 393h-86v-299q0 -136 17.5 -189.5 t64.5 -77.5v-20h-598zM598 864h125q86 0 124 44t38 141v24q0 97 -38 140.5t-124 43.5h-125v-393z" />
<glyph unicode="S" horiz-adv-x="1171" d="M61 35v403h21q49 -69 137 -99t264 -30q104 0 155.5 31t51.5 88q0 48 -29 76.5t-114 58.5l-107 37q-193 67 -282.5 180t-89.5 281v39q0 230 142.5 346.5t451.5 116.5h28q177 0 348 -50v-389h-20q-47 56 -123 79.5t-205 23.5q-117 0 -165 -24t-48 -79q0 -40 29.5 -68 t114.5 -57l106 -36q204 -70 293.5 -181.5t89.5 -271.5v-51q0 -251 -143.5 -368.5t-440.5 -117.5h-32q-101 0 -222.5 17.5t-210.5 44.5z" />
<glyph unicode="T" horiz-adv-x="1304" d="M41 1124v412h1223v-412h-21q-37 50 -89.5 69t-182.5 19h-105v-925q0 -135 21 -189t76 -78v-20h-621v20q55 24 75.5 78t20.5 189v925h-104q-130 0 -183 -19t-90 -69h-20z" />
<glyph unicode="U" horiz-adv-x="1423" d="M61 1516v20h598v-20q-47 -24 -64 -77.5t-17 -189.5v-774q0 -86 36.5 -125t122.5 -39t123 39t37 125v774q0 136 -17.5 189.5t-64.5 77.5v20h547v-20q-35 -17 -53 -43t-26.5 -78.5t-8.5 -145.5v-807q0 -228 -140 -348.5t-401 -120.5h-43q-260 0 -400 120.5t-140 348.5v807 q0 93 -9 145.5t-27 78.5t-53 43z" />
<glyph unicode="V" horiz-adv-x="1333" d="M0 1516v20h598v-20q-52 -23 -62 -64q-3 -13 -3 -33q0 -42 14 -112l160 -899l159 899q14 71 14 112q0 20 -4 33q-10 41 -61 64v20h518v-20q-40 -22 -64.5 -82.5t-58.5 -229.5l-245 -1204h-598l-244 1204q-34 169 -58.5 229.5t-64.5 82.5z" />
<glyph unicode="W" horiz-adv-x="2004" d="M0 1516v20h588v-20q-44 -22 -54 -59q-4 -16 -5 -45q0 -40 8 -105l102 -813l121 813q10 71 10 112q0 24 -4 38q-10 37 -57 59v20h667v-20q-48 -22 -58 -59q-4 -14 -3 -38q0 -41 10 -112l119 -813l104 813q8 65 8 105q0 29 -4 45q-10 37 -55 59v20h508v-20 q-42 -24 -68.5 -87t-54.5 -225l-201 -1204h-540l-127 1020l-125 -1020h-565l-201 1204q-28 162 -54.5 225t-68.5 87z" />
<glyph unicode="X" horiz-adv-x="1495" d="M10 0v20q43 19 76.5 62t99.5 166l299 559l-264 481q-65 118 -99.5 164.5t-70.5 63.5v20h608v-20q-38 -17 -38 -61q0 -38 30 -97l123 -242l123 242q30 59 30 97q0 43 -38 61v20h555v-20q-36 -17 -70.5 -63.5t-99.5 -164.5l-266 -481l301 -559q66 -123 99.5 -166t76.5 -62 v-20h-623v20q38 20 38 63q0 38 -30 95l-153 305l-154 -305q-30 -56 -30 -95q0 -43 38 -63v-20h-561z" />
<glyph unicode="Y" horiz-adv-x="1378" d="M0 1516v20h602v-20q-25 -8 -35 -26t-3 -62.5t36 -120.5l129 -340l131 340q29 76 36 120.5t-3 62.5t-35 26v20h520v-20q-41 -25 -78 -86t-106 -226l-291 -692v-225q0 -135 20.5 -189t75.5 -78v-20h-620v20q55 24 75.5 78t20.5 189v225l-291 692q-69 165 -106 226t-78 86z " />
<glyph unicode="Z" horiz-adv-x="1105" d="M37 0v283l520 936h-209q-90 0 -143 -10.5t-78.5 -27.5t-50.5 -51h-21v406h1000v-283l-523 -936h244q130 0 183 19.5t90 69.5h20v-406h-1032z" />
<glyph unicode="\" horiz-adv-x="962" d="M0 1679h287l676 -1822h-287z" />
<glyph unicode="`" horiz-adv-x="671" d="M102 1763l174 240l293 -371l-14 -18z" />
<glyph unicode="a" horiz-adv-x="1406" d="M0 0v20q39 22 62.5 82.5t60.5 229.5l201 921q22 101 25 152q1 10 1 19q0 36 -10 54q-12 22 -45 38v20h817v-20q-33 -16 -45 -38q-10 -18 -10 -54q0 -9 1 -19q3 -51 25 -152l201 -921q37 -169 60.5 -229.5t62.5 -82.5v-20h-598v20q52 22 62 64q3 13 3 34q0 42 -14 111 l-18 95h-359l-16 -95q-14 -70 -14 -111q0 -20 3 -34q10 -42 62 -64v-20h-518zM547 655h231l-114 611z" />
<glyph unicode="b" horiz-adv-x="1386" d="M82 0v20q35 17 53 43t26.5 78.5t8.5 145.5v962q0 93 -8.5 145.5t-26.5 78.5t-53 43v20h711q245 0 367 -104.5t122 -301.5v-43q0 -109 -65 -190.5t-175 -110.5q132 -30 197.5 -110.5t65.5 -218.5v-15q0 -226 -118 -334t-368 -108h-737zM598 279h117q87 0 124.5 36.5 t37.5 120.5v41q0 84 -37.5 121t-124.5 37h-117v-356zM598 913h94q87 0 124.5 37t37.5 121v29q0 84 -37.5 120.5t-124.5 36.5h-94v-344z" />
<glyph unicode="c" horiz-adv-x="1167" d="M82 463v608q0 247 140.5 369.5t432.5 122.5h15q189 0 385 -47v-404h-21q-57 60 -127.5 87.5t-169.5 27.5q-130 0 -178.5 -40t-48.5 -134v-570q0 -94 48.5 -134t178.5 -40q100 0 170 27t127 88h21v-404q-196 -47 -385 -47h-15q-291 0 -432 122t-141 368z" />
<glyph unicode="d" horiz-adv-x="1413" d="M82 0v20q35 17 53 43t26.5 78.5t8.5 145.5v962q0 93 -8.5 145.5t-26.5 78.5t-53 43v20h678q290 0 430.5 -121.5t140.5 -367.5v-558q0 -239 -134 -361t-409 -128h-706zM598 303h137q91 0 129.5 41.5t38.5 128.5v590q0 87 -38.5 128.5t-129.5 41.5h-137v-930z" />
<glyph unicode="e" horiz-adv-x="1290" d="M82 0v20q35 17 53 43t26.5 78.5t8.5 145.5v962q0 93 -8.5 145.5t-26.5 78.5t-53 43v20h1075v-391h-20q-37 50 -90 69t-183 19h-266v-299h84q134 0 185.5 15.5t86.5 62.5h21v-459h-21q-35 47 -86.5 62.5t-185.5 15.5h-84v-328h281q130 0 182.5 19t89.5 69h20v-391h-1089z " />
<glyph unicode="f" horiz-adv-x="1222" d="M82 0v20q35 17 53 43t26.5 78.5t8.5 145.5v962q0 93 -8.5 145.5t-26.5 78.5t-53 43v20h1061v-391h-21q-37 50 -89.5 69t-182.5 19h-252v-359h92q134 0 186 15.5t87 62.5h20v-458h-20q-34 47 -86.5 62t-186.5 15h-92v-284q0 -137 24 -188.5t95 -78.5v-20h-635z" />
<glyph unicode="g" horiz-adv-x="1302" d="M82 463v608q0 247 140.5 369.5t432.5 122.5h47q223 0 418 -47v-404h-20q-57 60 -140.5 87.5t-209.5 27.5q-138 0 -189 -40t-51 -134v-592q0 -89 36.5 -130.5t112.5 -41.5q80 0 134 10v193q0 93 -8.5 145t-26.5 78t-53 43v20h552v-20q-46 -25 -61.5 -76.5t-15.5 -189.5 v-424q-95 -37 -246 -66t-258 -29h-21q-291 0 -432 122t-141 368z" />
<glyph unicode="h" horiz-adv-x="1519" d="M82 0v20q35 17 53 43t26.5 78.5t8.5 145.5v962q0 93 -8.5 145.5t-26.5 78.5t-53 43v20h598v-20q-47 -24 -64.5 -77.5t-17.5 -189.5v-299h324v299q0 136 -17.5 189.5t-64.5 77.5v20h598v-20q-35 -17 -53 -43t-26.5 -78.5t-8.5 -145.5v-962q0 -93 8.5 -145.5t26.5 -78.5 t53 -43v-20h-598v20q47 24 64.5 77.5t17.5 189.5v319h-324v-319q0 -136 17.5 -189.5t64.5 -77.5v-20h-598z" />
<glyph unicode="i" horiz-adv-x="768" d="M82 0v20q35 17 53 43t26.5 78.5t8.5 145.5v962q0 93 -8.5 145.5t-26.5 78.5t-53 43v20h604v-20q-35 -17 -53 -43t-26.5 -78.5t-8.5 -145.5v-962q0 -93 8.5 -145.5t26.5 -78.5t53 -43v-20h-604z" />
<glyph unicode="j" horiz-adv-x="1015" d="M72 12v389h20q35 -50 78 -70t113 -20q81 0 118 39t37 123v778q0 91 -13 142.5t-36 76t-70 46.5v20h635v-20q-35 -17 -53 -43t-26.5 -78.5t-8.5 -145.5v-807q0 -469 -510 -469h-12q-130 0 -272 39z" />
<glyph unicode="k" horiz-adv-x="1437" d="M82 0v20q35 17 53 43t26.5 78.5t8.5 145.5v962q0 93 -8.5 145.5t-26.5 78.5t-53 43v20h598v-20q-47 -24 -64.5 -77.5t-17.5 -189.5v-270l223 379q37 64 37 104q0 37 -31 54v20h594v-20q-36 -14 -71.5 -50.5t-89.5 -119.5l-252 -390l299 -725q44 -105 72 -149t59 -62v-20 h-598v20q47 20 47 74q0 35 -19 84l-153 406l-117 -176v-121q0 -136 17.5 -189.5t64.5 -77.5v-20h-598z" />
<glyph unicode="l" horiz-adv-x="1187" d="M82 0v20q35 17 53 43t26.5 78.5t8.5 145.5v962q0 93 -8.5 145.5t-26.5 78.5t-53 43v20h635v-20q-47 -22 -70 -47t-36 -76.5t-13 -143.5v-946h225q130 0 183 19t90 69h20v-391h-1034z" />
<glyph unicode="m" horiz-adv-x="1835" d="M82 0v20q35 17 53 43t26.5 78.5t8.5 145.5v962q0 93 -8.5 145.5t-26.5 78.5t-53 43v20h672l196 -569l197 569h606v-20q-35 -17 -53 -43t-26.5 -78.5t-8.5 -145.5v-962q0 -93 8.5 -145.5t26.5 -78.5t53 -43v-20h-598v20q47 24 64.5 77.5t17.5 189.5v690l-324 -977h-45 l-323 977v-690q0 -136 17.5 -189.5t64.5 -77.5v-20h-545z" />
<glyph unicode="n" horiz-adv-x="1460" d="M82 0v20q35 17 53 43t26.5 78.5t8.5 145.5v962q0 93 -8.5 145.5t-26.5 78.5t-53 43v20h518l326 -739v452q0 136 -17.5 189.5t-64.5 77.5v20h545v-20q-35 -17 -53 -43t-27 -78.5t-9 -145.5v-1249h-378l-377 813v-526q0 -136 17.5 -189.5t64.5 -77.5v-20h-545z" />
<glyph unicode="o" d="M82 463v610q0 246 140.5 368t430.5 122h49q290 0 431 -122t141 -368v-610q0 -246 -141 -368t-431 -122h-49q-290 0 -430.5 122t-140.5 368zM510 457q0 -87 38.5 -128.5t129.5 -41.5t129.5 41.5t38.5 128.5v622q0 87 -38.5 128.5t-129.5 41.5t-129.5 -41.5t-38.5 -128.5 v-622z" />
<glyph unicode="p" horiz-adv-x="1349" d="M82 0v20q35 17 53 43t26.5 78.5t8.5 145.5v962q0 93 -8.5 145.5t-26.5 78.5t-53 43v20h747q238 0 351.5 -106t113.5 -324v-154q0 -218 -113.5 -324t-351.5 -106h-231v-235q0 -137 24 -188.5t95 -78.5v-20h-635zM598 799h107q86 0 123.5 43.5t37.5 140.5v90 q0 97 -37.5 140.5t-123.5 43.5h-107v-458z" />
<glyph unicode="q" d="M82 463v610q0 246 140.5 368t430.5 122h49q290 0 431 -122t141 -368v-610q0 -314 -230 -426l68 -115q41 -72 70 -104t67 -49v-19h-235q-128 0 -189.5 36.5t-113.5 145.5l-21 41h-37q-290 0 -430.5 122t-140.5 368zM510 457q0 -87 38.5 -128.5t129.5 -41.5t129.5 41.5 t38.5 128.5v622q0 87 -38.5 128.5t-129.5 41.5t-129.5 -41.5t-38.5 -128.5v-622z" />
<glyph unicode="r" horiz-adv-x="1411" d="M82 0v20q35 17 53 43t26.5 78.5t8.5 145.5v962q0 93 -8.5 145.5t-26.5 78.5t-53 43v20h766q238 0 351.5 -106t113.5 -324v-78q0 -146 -55 -240t-171 -145l166 -412q41 -99 72 -145t66 -66v-20h-584v20q39 19 42 48v6q0 32 -28 119l-137 393h-86v-299q0 -136 17.5 -189.5 t64.5 -77.5v-20h-598zM598 864h125q86 0 124 44t38 141v24q0 97 -38 140.5t-124 43.5h-125v-393z" />
<glyph unicode="s" horiz-adv-x="1171" d="M61 35v403h21q49 -69 137 -99t264 -30q104 0 155.5 31t51.5 88q0 48 -29 76.5t-114 58.5l-107 37q-193 67 -282.5 180t-89.5 281v39q0 230 142.5 346.5t451.5 116.5h28q177 0 348 -50v-389h-20q-47 56 -123 79.5t-205 23.5q-117 0 -165 -24t-48 -79q0 -40 29.5 -68 t114.5 -57l106 -36q204 -70 293.5 -181.5t89.5 -271.5v-51q0 -251 -143.5 -368.5t-440.5 -117.5h-32q-101 0 -222.5 17.5t-210.5 44.5z" />
<glyph unicode="t" horiz-adv-x="1304" d="M41 1124v412h1223v-412h-21q-37 50 -89.5 69t-182.5 19h-105v-925q0 -135 21 -189t76 -78v-20h-621v20q55 24 75.5 78t20.5 189v925h-104q-130 0 -183 -19t-90 -69h-20z" />
<glyph unicode="u" horiz-adv-x="1423" d="M61 1516v20h598v-20q-47 -24 -64 -77.5t-17 -189.5v-774q0 -86 36.5 -125t122.5 -39t123 39t37 125v774q0 136 -17.5 189.5t-64.5 77.5v20h547v-20q-35 -17 -53 -43t-26.5 -78.5t-8.5 -145.5v-807q0 -228 -140 -348.5t-401 -120.5h-43q-260 0 -400 120.5t-140 348.5v807 q0 93 -9 145.5t-27 78.5t-53 43z" />
<glyph unicode="v" horiz-adv-x="1333" d="M0 1516v20h598v-20q-52 -23 -62 -64q-3 -13 -3 -33q0 -42 14 -112l160 -899l159 899q14 71 14 112q0 20 -4 33q-10 41 -61 64v20h518v-20q-40 -22 -64.5 -82.5t-58.5 -229.5l-245 -1204h-598l-244 1204q-34 169 -58.5 229.5t-64.5 82.5z" />
<glyph unicode="w" horiz-adv-x="2004" d="M0 1516v20h588v-20q-44 -22 -54 -59q-4 -16 -5 -45q0 -40 8 -105l102 -813l121 813q10 71 10 112q0 24 -4 38q-10 37 -57 59v20h667v-20q-48 -22 -58 -59q-4 -14 -3 -38q0 -41 10 -112l119 -813l104 813q8 65 8 105q0 29 -4 45q-10 37 -55 59v20h508v-20 q-42 -24 -68.5 -87t-54.5 -225l-201 -1204h-540l-127 1020l-125 -1020h-565l-201 1204q-28 162 -54.5 225t-68.5 87z" />
<glyph unicode="x" horiz-adv-x="1495" d="M10 0v20q43 19 76.5 62t99.5 166l299 559l-264 481q-65 118 -99.5 164.5t-70.5 63.5v20h608v-20q-38 -17 -38 -61q0 -38 30 -97l123 -242l123 242q30 59 30 97q0 43 -38 61v20h555v-20q-36 -17 -70.5 -63.5t-99.5 -164.5l-266 -481l301 -559q66 -123 99.5 -166t76.5 -62 v-20h-623v20q38 20 38 63q0 38 -30 95l-153 305l-154 -305q-30 -56 -30 -95q0 -43 38 -63v-20h-561z" />
<glyph unicode="y" horiz-adv-x="1378" d="M0 1516v20h602v-20q-25 -8 -35 -26t-3 -62.5t36 -120.5l129 -340l131 340q29 76 36 120.5t-3 62.5t-35 26v20h520v-20q-41 -25 -78 -86t-106 -226l-291 -692v-225q0 -135 20.5 -189t75.5 -78v-20h-620v20q55 24 75.5 78t20.5 189v225l-291 692q-69 165 -106 226t-78 86z " />
<glyph unicode="z" horiz-adv-x="1105" d="M37 0v283l520 936h-209q-90 0 -143 -10.5t-78.5 -27.5t-50.5 -51h-21v406h1000v-283l-523 -936h244q130 0 183 19.5t90 69.5h20v-406h-1032z" />
<glyph unicode="&#xa1;" horiz-adv-x="716" d="M123 0l102 1014h267l102 -1014h-471zM133 1337q0 98 64 162t161 64t161.5 -64t64.5 -162t-64.5 -161.5t-161.5 -63.5t-161 63.5t-64 161.5z" />
<glyph unicode="&#xa2;" horiz-adv-x="1142" d="M82 463v260q0 491 555 491h14q15 0 47 -1t47 -1l50 246h123l-52 -256q77 -9 164 -24v-373h-20q-76 73 -205 82l-117 -590h31q108 0 175 18.5t116 67.5h20v-373q-191 -37 -379 -37h-14h-12l-41 -204h-123l41 213q-420 55 -420 481zM498 471q0 -109 71 -147l113 565 q-103 -4 -143.5 -45t-40.5 -127v-246z" />
<glyph unicode="&#xa8;" horiz-adv-x="933" d="M102 1786q0 70 45.5 115t114.5 45t114.5 -45t45.5 -115t-45.5 -115t-114.5 -45t-114.5 45t-45.5 115zM512 1786q0 70 45.5 115t114.5 45t114 -45t45 -115t-45 -115t-114 -45t-114.5 45t-45.5 115z" />
<glyph unicode="&#xaa;" horiz-adv-x="890" d="M41 737v19q20 13 32.5 41.5t30.5 111.5l105 480q16 75 13 96.5t-29 32.5v18h509v-18q-26 -11 -29.5 -32t13.5 -97l105 -480q18 -83 30.5 -111.5t32.5 -41.5v-19h-367v19q26 12 31 30.5t-4 69.5l-8 43h-170l-6 -43q-9 -51 -4.5 -69.5t30.5 -30.5v-19h-315zM365 1067h112 l-55 334z" />
<glyph unicode="&#xab;" horiz-adv-x="1073" d="M113 737v94q0 177 122 278t320 101h27v-20l-25 -8q-75 -25 -113 -114t-38 -257v-53q0 -168 38 -257t113 -114l25 -8v-21h-27q-198 0 -320 101t-122 278zM543 737v94q0 177 122 278t320 101h27v-20l-25 -8q-75 -25 -113 -114t-38 -257v-53q0 -168 38 -257t113 -114l25 -8 v-21h-27q-198 0 -320 101t-122 278z" />
<glyph unicode="&#xad;" horiz-adv-x="731" d="M72 616v336h587v-336h-587z" />
<glyph unicode="&#xb4;" horiz-adv-x="671" d="M102 1632l293 371l174 -240l-452 -149z" />
<glyph unicode="&#xb8;" horiz-adv-x="675" d="M102 -369q74 -20 138 -20q58 0 84 15t26 48v2q0 64 -96 64h-94l104 260h152l-35 -119h6q87 0 136.5 -48.5t49.5 -135.5v-47q0 -82 -65 -131t-193 -49h-2q-103 0 -211 24v137z" />
<glyph unicode="&#xba;" horiz-adv-x="925" d="M82 1047v180q0 336 377 336h8q377 0 377 -336v-180q0 -336 -377 -336h-8q-377 0 -377 336zM377 1040q0 -67 19.5 -92.5t66.5 -25.5t66.5 25.5t19.5 92.5v193q0 68 -19.5 93.5t-66.5 25.5t-66.5 -25.5t-19.5 -93.5v-193z" />
<glyph unicode="&#xbb;" horiz-adv-x="1073" d="M61 358v21l25 8q152 51 152 371v53q0 320 -152 371l-25 8v20h27q198 0 320 -101t122 -278v-94q0 -177 -122 -278t-320 -101h-27zM492 358v21l24 8q152 51 152 371v53q0 320 -152 371l-24 8v20h26q198 0 320.5 -101t122.5 -278v-94q0 -177 -122.5 -278t-320.5 -101h-26z " />
<glyph unicode="&#xbf;" horiz-adv-x="1183" d="M72 465v37q0 211 125.5 317.5t357.5 106.5h6l55 88h246v-381h-184q-178 0 -178 -150v-10q0 -95 55 -129.5t201 -34.5q216 0 325 115h21v-404q-219 -47 -414 -47h-35q-314 0 -447.5 117t-133.5 375zM514 1337q0 98 64 162t161 64t161.5 -64t64.5 -162t-64.5 -161.5 t-161.5 -63.5t-161 63.5t-64 161.5z" />
<glyph unicode="&#xc0;" horiz-adv-x="1406" d="M0 0v20q39 22 62.5 82.5t60.5 229.5l201 921q22 101 25 152t-9 73t-45 38v20h817v-20q-33 -16 -45 -38t-9 -73t25 -152l201 -921q37 -169 60.5 -229.5t62.5 -82.5v-20h-598v20q52 23 62 64.5t-11 144.5l-18 95h-359l-16 -95q-21 -103 -11 -144.5t62 -64.5v-20h-518z M354 1763l174 240l293 -371l-14 -18zM547 655h231l-114 611z" />
<glyph unicode="&#xc1;" horiz-adv-x="1406" d="M0 0v20q39 22 62.5 82.5t60.5 229.5l201 921q22 101 25 152t-9 73t-45 38v20h817v-20q-33 -16 -45 -38t-9 -73t25 -152l201 -921q37 -169 60.5 -229.5t62.5 -82.5v-20h-598v20q52 23 62 64.5t-11 144.5l-18 95h-359l-16 -95q-21 -103 -11 -144.5t62 -64.5v-20h-518z M547 655h231l-114 611zM584 1632l293 371l174 -240l-453 -149z" />
<glyph unicode="&#xc2;" horiz-adv-x="1406" d="M0 0v20q39 22 62.5 82.5t60.5 229.5l201 921q22 101 25 152t-9 73t-45 38v20h817v-20q-33 -16 -45 -38t-9 -73t25 -152l201 -921q37 -169 60.5 -229.5t62.5 -82.5v-20h-598v20q52 23 62 64.5t-11 144.5l-18 95h-359l-16 -95q-21 -103 -11 -144.5t62 -64.5v-20h-518z M365 1616l321 334h33l321 -334l-10 -12l-328 122l-327 -122zM547 655h231l-114 611z" />
<glyph unicode="&#xc3;" horiz-adv-x="1406" d="M0 0v20q39 22 62.5 82.5t60.5 229.5l201 921q22 101 25 152t-9 73t-45 38v20h817v-20q-33 -16 -45 -38t-9 -73t25 -152l201 -921q37 -169 60.5 -229.5t62.5 -82.5v-20h-598v20q52 23 62 64.5t-11 144.5l-18 95h-359l-16 -95q-21 -103 -11 -144.5t62 -64.5v-20h-518z M379 1634v49q0 111 48.5 170.5t135.5 59.5q50 0 129 -29l94 -33q61 -20 97 -20q67 0 114 76l7 10l22 -6v-49q0 -111 -48.5 -170.5t-135.5 -59.5q-50 0 -129 29l-95 33q-61 20 -96 20q-67 0 -114 -76l-7 -10zM547 655h231l-114 611z" />
<glyph unicode="&#xc4;" horiz-adv-x="1406" d="M0 0v20q39 22 62.5 82.5t60.5 229.5l201 921q22 101 25 152t-9 73t-45 38v20h817v-20q-33 -16 -45 -38t-9 -73t25 -152l201 -921q37 -169 60.5 -229.5t62.5 -82.5v-20h-598v20q52 23 62 64.5t-11 144.5l-18 95h-359l-16 -95q-21 -103 -11 -144.5t62 -64.5v-20h-518z M338 1786q0 70 45.5 115t114.5 45t114 -45t45 -115t-45 -115t-114 -45t-114.5 45t-45.5 115zM547 655h231l-114 611zM748 1786q0 70 45 115t114 45t114.5 -45t45.5 -115t-45.5 -115t-114.5 -45t-114 45t-45 115z" />
<glyph unicode="&#xc5;" horiz-adv-x="1406" d="M0 0v20q39 22 62.5 82.5t60.5 229.5l201 921q22 101 25 152t-9 73t-45 38v20h817v-20q-33 -16 -45 -38t-9 -73t25 -152l201 -921q37 -169 60.5 -229.5t62.5 -82.5v-20h-598v20q52 23 62 64.5t-11 144.5l-18 95h-359l-16 -95q-21 -103 -11 -144.5t62 -64.5v-20h-518z M481 1812v11q0 90 55 143t150 53h33q95 0 150 -53t55 -143v-11q0 -90 -55 -143t-150 -53h-33q-95 0 -150 53t-55 143zM547 655h231l-114 611zM602 1817q0 -47 25.5 -75t74.5 -28q50 0 75.5 28t25.5 75v2q0 47 -25.5 74.5t-75.5 27.5t-75 -27.5t-25 -74.5v-2z" />
<glyph unicode="&#xc6;" horiz-adv-x="2093" d="M0 0v20q25 16 46 37.5t63 91.5t94 183l420 921q54 118 58 178.5t-36 84.5v20h1315v-391h-21q-37 50 -89.5 69t-182.5 19h-266v-299h84q134 0 185.5 15.5t86.5 62.5h21v-459h-21q-35 47 -86.5 62.5t-185.5 15.5h-84v-328h280q130 0 183 19t90 69h20v-391h-1089v20 q35 17 53 43t26.5 78.5t8.5 145.5v37h-387l-41 -95q-40 -92 -40.5 -140.5t40.5 -68.5v-20h-545zM733 655h240v539z" />
<glyph unicode="&#xc7;" horiz-adv-x="1167" d="M82 463v608q0 247 140.5 369.5t432.5 122.5h15q189 0 385 -47v-404h-21q-57 60 -127.5 87.5t-169.5 27.5q-130 0 -178.5 -40t-48.5 -134v-570q0 -94 48.5 -134t178.5 -40q100 0 170 27t127 88h21v-404q-180 -44 -355 -47l-26 -92h6q87 0 136.5 -48.5t49.5 -135.5v-47 q0 -82 -65 -131t-193 -49h-2q-103 0 -211 24v137q74 -20 137 -20q111 0 111 63v2q0 64 -96 64h-94l94 240q-236 20 -350.5 140t-114.5 343z" />
<glyph unicode="&#xc8;" horiz-adv-x="1290" d="M82 0v20q35 17 53 43t26.5 78.5t8.5 145.5v962q0 93 -8.5 145.5t-26.5 78.5t-53 43v20h1075v-391h-20q-37 50 -90 69t-183 19h-266v-299h84q134 0 185.5 15.5t86.5 62.5h21v-459h-21q-35 47 -86.5 62.5t-185.5 15.5h-84v-328h281q130 0 182.5 19t89.5 69h20v-391h-1089z M309 1763l174 240l293 -371l-14 -18z" />
<glyph unicode="&#xc9;" horiz-adv-x="1290" d="M82 0v20q35 17 53 43t26.5 78.5t8.5 145.5v962q0 93 -8.5 145.5t-26.5 78.5t-53 43v20h1075v-391h-20q-37 50 -90 69t-183 19h-266v-299h84q134 0 185.5 15.5t86.5 62.5h21v-459h-21q-35 47 -86.5 62.5t-185.5 15.5h-84v-328h281q130 0 182.5 19t89.5 69h20v-391h-1089z M539 1632l292 371l175 -240l-453 -149z" />
<glyph unicode="&#xca;" horiz-adv-x="1290" d="M82 0v20q35 17 53 43t26.5 78.5t8.5 145.5v962q0 93 -8.5 145.5t-26.5 78.5t-53 43v20h1075v-391h-20q-37 50 -90 69t-183 19h-266v-299h84q134 0 185.5 15.5t86.5 62.5h21v-459h-21q-35 47 -86.5 62.5t-185.5 15.5h-84v-328h281q130 0 182.5 19t89.5 69h20v-391h-1089z M319 1616l322 334h33l321 -334l-10 -12l-328 122l-327 -122z" />
<glyph unicode="&#xcb;" horiz-adv-x="1290" d="M82 0v20q35 17 53 43t26.5 78.5t8.5 145.5v962q0 93 -8.5 145.5t-26.5 78.5t-53 43v20h1075v-391h-20q-37 50 -90 69t-183 19h-266v-299h84q134 0 185.5 15.5t86.5 62.5h21v-459h-21q-35 47 -86.5 62.5t-185.5 15.5h-84v-328h281q130 0 182.5 19t89.5 69h20v-391h-1089z M293 1786q0 70 45.5 115t114.5 45t114 -45t45 -115t-45 -115t-114 -45t-114.5 45t-45.5 115zM702 1786q0 70 45.5 115t114.5 45t114.5 -45t45.5 -115t-45.5 -115t-114.5 -45t-114.5 45t-45.5 115z" />
<glyph unicode="&#xcc;" horiz-adv-x="768" d="M37 1763l174 240l293 -371l-15 -18zM82 0v20q35 17 53 43t26.5 78.5t8.5 145.5v962q0 93 -8.5 145.5t-26.5 78.5t-53 43v20h604v-20q-35 -17 -53 -43t-26.5 -78.5t-8.5 -145.5v-962q0 -93 8.5 -145.5t26.5 -78.5t53 -43v-20h-604z" />
<glyph unicode="&#xcd;" horiz-adv-x="768" d="M82 0v20q35 17 53 43t26.5 78.5t8.5 145.5v962q0 93 -8.5 145.5t-26.5 78.5t-53 43v20h604v-20q-35 -17 -53 -43t-26.5 -78.5t-8.5 -145.5v-962q0 -93 8.5 -145.5t26.5 -78.5t53 -43v-20h-604zM264 1632l293 371l174 -240l-452 -149z" />
<glyph unicode="&#xce;" horiz-adv-x="768" d="M47 1616l322 334h32l322 -334l-10 -12l-328 122l-328 -122zM82 0v20q35 17 53 43t26.5 78.5t8.5 145.5v962q0 93 -8.5 145.5t-26.5 78.5t-53 43v20h604v-20q-35 -17 -53 -43t-26.5 -78.5t-8.5 -145.5v-962q0 -93 8.5 -145.5t26.5 -78.5t53 -43v-20h-604z" />
<glyph unicode="&#xcf;" horiz-adv-x="768" d="M20 1786q0 70 45.5 115t114.5 45t114.5 -45t45.5 -115t-45.5 -115t-114.5 -45t-114.5 45t-45.5 115zM82 0v20q35 17 53 43t26.5 78.5t8.5 145.5v962q0 93 -8.5 145.5t-26.5 78.5t-53 43v20h604v-20q-35 -17 -53 -43t-26.5 -78.5t-8.5 -145.5v-962q0 -93 8.5 -145.5 t26.5 -78.5t53 -43v-20h-604zM430 1786q0 70 45.5 115t114.5 45t114.5 -45t45.5 -115t-45.5 -115t-114.5 -45t-114.5 45t-45.5 115z" />
<glyph unicode="&#xd1;" horiz-adv-x="1460" d="M82 0v20q35 17 53 43t26.5 78.5t8.5 145.5v962q0 93 -8.5 145.5t-26.5 78.5t-53 43v20h518l326 -739v452q0 136 -17.5 189.5t-64.5 77.5v20h545v-20q-35 -17 -53 -43t-27 -78.5t-9 -145.5v-1249h-378l-377 813v-526q0 -136 17.5 -189.5t64.5 -77.5v-20h-545zM412 1634v49 q0 111 48.5 170.5t135.5 59.5q50 0 129 -29l94 -33q61 -20 96 -20q68 0 115 76l6 10l23 -6v-49q0 -111 -49 -170.5t-136 -59.5q-50 0 -129 29l-94 33q-61 20 -96 20q-68 0 -115 -76l-6 -10z" />
<glyph unicode="&#xd2;" d="M82 463v610q0 246 140.5 368t430.5 122h49q290 0 431 -122t141 -368v-610q0 -246 -141 -368t-431 -122h-49q-290 0 -430.5 122t-140.5 368zM330 1763l174 240l293 -371l-15 -18zM510 457q0 -87 38.5 -128.5t129.5 -41.5t129.5 41.5t38.5 128.5v622q0 87 -38.5 128.5 t-129.5 41.5t-129.5 -41.5t-38.5 -128.5v-622z" />
<glyph unicode="&#xd3;" d="M82 463v610q0 246 140.5 368t430.5 122h49q290 0 431 -122t141 -368v-610q0 -246 -141 -368t-431 -122h-49q-290 0 -430.5 122t-140.5 368zM510 457q0 -87 38.5 -128.5t129.5 -41.5t129.5 41.5t38.5 128.5v622q0 87 -38.5 128.5t-129.5 41.5t-129.5 -41.5t-38.5 -128.5 v-622zM559 1632l293 371l174 -240l-453 -149z" />
<glyph unicode="&#xd4;" d="M82 463v610q0 246 140.5 368t430.5 122h49q290 0 431 -122t141 -368v-610q0 -246 -141 -368t-431 -122h-49q-290 0 -430.5 122t-140.5 368zM340 1616l322 334h32l322 -334l-10 -12l-328 122l-328 -122zM510 457q0 -87 38.5 -128.5t129.5 -41.5t129.5 41.5t38.5 128.5v622 q0 87 -38.5 128.5t-129.5 41.5t-129.5 -41.5t-38.5 -128.5v-622z" />
<glyph unicode="&#xd5;" d="M82 463v610q0 246 140.5 368t430.5 122h49q290 0 431 -122t141 -368v-610q0 -246 -141 -368t-431 -122h-49q-290 0 -430.5 122t-140.5 368zM354 1634v49q0 111 49 170.5t136 59.5q50 0 129 -29l94 -33q61 -20 96 -20q68 0 115 76l6 10l22 -6v-49q0 -111 -48.5 -170.5 t-135.5 -59.5q-50 0 -129 29l-94 33q-61 20 -96 20q-68 0 -115 -76l-6 -10zM510 457q0 -87 38.5 -128.5t129.5 -41.5t129.5 41.5t38.5 128.5v622q0 87 -38.5 128.5t-129.5 41.5t-129.5 -41.5t-38.5 -128.5v-622z" />
<glyph unicode="&#xd6;" d="M82 463v610q0 246 140.5 368t430.5 122h49q290 0 431 -122t141 -368v-610q0 -246 -141 -368t-431 -122h-49q-290 0 -430.5 122t-140.5 368zM313 1786q0 70 45.5 115t114.5 45t114.5 -45t45.5 -115t-45.5 -115t-114.5 -45t-114.5 45t-45.5 115zM510 457q0 -87 38.5 -128.5 t129.5 -41.5t129.5 41.5t38.5 128.5v622q0 87 -38.5 128.5t-129.5 41.5t-129.5 -41.5t-38.5 -128.5v-622zM723 1786q0 70 45.5 115t114.5 45t114 -45t45 -115t-45 -115t-114 -45t-114.5 45t-45.5 115z" />
<glyph unicode="&#xd8;" d="M82 463v610q0 246 140.5 368t430.5 122h49q240 0 379 -86l41 59h150l-94 -141q96 -119 96 -322v-610q0 -246 -141 -368t-431 -122h-49q-240 0 -381 84l-39 -57h-149l94 139q-96 116 -96 324zM510 631l332 491q-8 64 -47 95.5t-117 31.5q-91 0 -129.5 -41.5t-38.5 -128.5 v-448zM512 412q9 -65 47.5 -95t118.5 -30q91 0 129.5 41.5t38.5 128.5v448z" />
<glyph unicode="&#xd9;" horiz-adv-x="1423" d="M61 1516v20h598v-20q-47 -24 -64 -77.5t-17 -189.5v-774q0 -86 36.5 -125t122.5 -39t123 39t37 125v774q0 136 -17.5 189.5t-64.5 77.5v20h547v-20q-35 -17 -53 -43t-26.5 -78.5t-8.5 -145.5v-807q0 -228 -140 -348.5t-401 -120.5h-43q-260 0 -400 120.5t-140 348.5v807 q0 93 -9 145.5t-27 78.5t-53 43zM362 1763l175 240l292 -371l-14 -18z" />
<glyph unicode="&#xda;" horiz-adv-x="1423" d="M61 1516v20h598v-20q-47 -24 -64 -77.5t-17 -189.5v-774q0 -86 36.5 -125t122.5 -39t123 39t37 125v774q0 136 -17.5 189.5t-64.5 77.5v20h547v-20q-35 -17 -53 -43t-26.5 -78.5t-8.5 -145.5v-807q0 -228 -140 -348.5t-401 -120.5h-43q-260 0 -400 120.5t-140 348.5v807 q0 93 -9 145.5t-27 78.5t-53 43zM592 1632l293 371l174 -240l-453 -149z" />
<glyph unicode="&#xdb;" horiz-adv-x="1423" d="M61 1516v20h598v-20q-47 -24 -64 -77.5t-17 -189.5v-774q0 -86 36.5 -125t122.5 -39t123 39t37 125v774q0 136 -17.5 189.5t-64.5 77.5v20h547v-20q-35 -17 -53 -43t-26.5 -78.5t-8.5 -145.5v-807q0 -228 -140 -348.5t-401 -120.5h-43q-260 0 -400 120.5t-140 348.5v807 q0 93 -9 145.5t-27 78.5t-53 43zM373 1616l321 334h33l322 -334l-11 -12l-327 122l-328 -122z" />
<glyph unicode="&#xdc;" horiz-adv-x="1423" d="M61 1516v20h598v-20q-47 -24 -64 -77.5t-17 -189.5v-774q0 -86 36.5 -125t122.5 -39t123 39t37 125v774q0 136 -17.5 189.5t-64.5 77.5v20h547v-20q-35 -17 -53 -43t-26.5 -78.5t-8.5 -145.5v-807q0 -228 -140 -348.5t-401 -120.5h-43q-260 0 -400 120.5t-140 348.5v807 q0 93 -9 145.5t-27 78.5t-53 43zM346 1786q0 70 45.5 115t114.5 45t114.5 -45t45.5 -115t-45.5 -115t-114.5 -45t-114.5 45t-45.5 115zM756 1786q0 70 45 115t114 45t114.5 -45t45.5 -115t-45.5 -115t-114.5 -45t-114 45t-45 115z" />
<glyph unicode="&#xdd;" horiz-adv-x="1378" d="M0 1516v20h602v-20q-25 -8 -35 -26t-3 -62.5t36 -120.5l129 -340l131 340q29 76 36 120.5t-3 62.5t-35 26v20h520v-20q-41 -25 -78 -86t-106 -226l-291 -692v-225q0 -135 20.5 -189t75.5 -78v-20h-620v20q55 24 75.5 78t20.5 189v225l-291 692q-69 165 -106 226t-78 86z M569 1632l293 371l174 -240l-452 -149z" />
<glyph unicode="&#xe0;" horiz-adv-x="1406" d="M0 0v20q39 22 62.5 82.5t60.5 229.5l201 921q22 101 25 152t-9 73t-45 38v20h817v-20q-33 -16 -45 -38t-9 -73t25 -152l201 -921q37 -169 60.5 -229.5t62.5 -82.5v-20h-598v20q52 23 62 64.5t-11 144.5l-18 95h-359l-16 -95q-21 -103 -11 -144.5t62 -64.5v-20h-518z M354 1763l174 240l293 -371l-14 -18zM547 655h231l-114 611z" />
<glyph unicode="&#xe1;" horiz-adv-x="1406" d="M0 0v20q39 22 62.5 82.5t60.5 229.5l201 921q22 101 25 152t-9 73t-45 38v20h817v-20q-33 -16 -45 -38t-9 -73t25 -152l201 -921q37 -169 60.5 -229.5t62.5 -82.5v-20h-598v20q52 23 62 64.5t-11 144.5l-18 95h-359l-16 -95q-21 -103 -11 -144.5t62 -64.5v-20h-518z M547 655h231l-114 611zM584 1632l293 371l174 -240l-453 -149z" />
<glyph unicode="&#xe2;" horiz-adv-x="1406" d="M0 0v20q39 22 62.5 82.5t60.5 229.5l201 921q22 101 25 152t-9 73t-45 38v20h817v-20q-33 -16 -45 -38t-9 -73t25 -152l201 -921q37 -169 60.5 -229.5t62.5 -82.5v-20h-598v20q52 23 62 64.5t-11 144.5l-18 95h-359l-16 -95q-21 -103 -11 -144.5t62 -64.5v-20h-518z M365 1616l321 334h33l321 -334l-10 -12l-328 122l-327 -122zM547 655h231l-114 611z" />
<glyph unicode="&#xe3;" horiz-adv-x="1406" d="M0 0v20q39 22 62.5 82.5t60.5 229.5l201 921q22 101 25 152t-9 73t-45 38v20h817v-20q-33 -16 -45 -38t-9 -73t25 -152l201 -921q37 -169 60.5 -229.5t62.5 -82.5v-20h-598v20q52 23 62 64.5t-11 144.5l-18 95h-359l-16 -95q-21 -103 -11 -144.5t62 -64.5v-20h-518z M379 1634v49q0 111 48.5 170.5t135.5 59.5q50 0 129 -29l94 -33q61 -20 97 -20q67 0 114 76l7 10l22 -6v-49q0 -111 -48.5 -170.5t-135.5 -59.5q-50 0 -129 29l-95 33q-61 20 -96 20q-67 0 -114 -76l-7 -10zM547 655h231l-114 611z" />
<glyph unicode="&#xe4;" horiz-adv-x="1406" d="M0 0v20q39 22 62.5 82.5t60.5 229.5l201 921q22 101 25 152t-9 73t-45 38v20h817v-20q-33 -16 -45 -38t-9 -73t25 -152l201 -921q37 -169 60.5 -229.5t62.5 -82.5v-20h-598v20q52 23 62 64.5t-11 144.5l-18 95h-359l-16 -95q-21 -103 -11 -144.5t62 -64.5v-20h-518z M338 1786q0 70 45.5 115t114.5 45t114 -45t45 -115t-45 -115t-114 -45t-114.5 45t-45.5 115zM547 655h231l-114 611zM748 1786q0 70 45 115t114 45t114.5 -45t45.5 -115t-45.5 -115t-114.5 -45t-114 45t-45 115z" />
<glyph unicode="&#xe5;" horiz-adv-x="1406" d="M0 0v20q39 22 62.5 82.5t60.5 229.5l201 921q22 101 25 152t-9 73t-45 38v20h817v-20q-33 -16 -45 -38t-9 -73t25 -152l201 -921q37 -169 60.5 -229.5t62.5 -82.5v-20h-598v20q52 23 62 64.5t-11 144.5l-18 95h-359l-16 -95q-21 -103 -11 -144.5t62 -64.5v-20h-518z M481 1812v11q0 90 55 143t150 53h33q95 0 150 -53t55 -143v-11q0 -90 -55 -143t-150 -53h-33q-95 0 -150 53t-55 143zM547 655h231l-114 611zM602 1817q0 -47 25.5 -75t74.5 -28q50 0 75.5 28t25.5 75v2q0 47 -25.5 74.5t-75.5 27.5t-75 -27.5t-25 -74.5v-2z" />
<glyph unicode="&#xe6;" horiz-adv-x="2134" d="M0 0v20q25 16 46 37.5t63 91.5t94 183l420 921q54 118 58 178.5t-36 84.5v20h1315v-391h-21q-37 50 -89.5 69t-182.5 19h-266v-299h84q134 0 185.5 15.5t86.5 62.5h21v-459h-21q-35 47 -86.5 62.5t-185.5 15.5h-84v-328h280q130 0 183 19t90 69h20v-391h-1089v20 q35 17 53 43t26.5 78.5t8.5 145.5v37h-387l-41 -95q-40 -92 -40.5 -140.5t40.5 -68.5v-20h-545zM733 655h240v539z" />
<glyph unicode="&#xe7;" horiz-adv-x="1167" d="M82 463v608q0 247 140.5 369.5t432.5 122.5h15q189 0 385 -47v-404h-21q-57 60 -127.5 87.5t-169.5 27.5q-130 0 -178.5 -40t-48.5 -134v-570q0 -94 48.5 -134t178.5 -40q100 0 170 27t127 88h21v-404q-180 -44 -355 -47l-26 -92h6q87 0 136.5 -48.5t49.5 -135.5v-47 q0 -82 -65 -131t-193 -49h-2q-103 0 -211 24v137q74 -20 137 -20q111 0 111 63v2q0 64 -96 64h-94l94 240q-236 20 -350.5 140t-114.5 343z" />
<glyph unicode="&#xe8;" horiz-adv-x="1290" d="M82 0v20q35 17 53 43t26.5 78.5t8.5 145.5v962q0 93 -8.5 145.5t-26.5 78.5t-53 43v20h1075v-391h-20q-37 50 -90 69t-183 19h-266v-299h84q134 0 185.5 15.5t86.5 62.5h21v-459h-21q-35 47 -86.5 62.5t-185.5 15.5h-84v-328h281q130 0 182.5 19t89.5 69h20v-391h-1089z M309 1763l174 240l293 -371l-14 -18z" />
<glyph unicode="&#xe9;" horiz-adv-x="1290" d="M82 0v20q35 17 53 43t26.5 78.5t8.5 145.5v962q0 93 -8.5 145.5t-26.5 78.5t-53 43v20h1075v-391h-20q-37 50 -90 69t-183 19h-266v-299h84q134 0 185.5 15.5t86.5 62.5h21v-459h-21q-35 47 -86.5 62.5t-185.5 15.5h-84v-328h281q130 0 182.5 19t89.5 69h20v-391h-1089z M539 1632l292 371l175 -240l-453 -149z" />
<glyph unicode="&#xea;" horiz-adv-x="1290" d="M82 0v20q35 17 53 43t26.5 78.5t8.5 145.5v962q0 93 -8.5 145.5t-26.5 78.5t-53 43v20h1075v-391h-20q-37 50 -90 69t-183 19h-266v-299h84q134 0 185.5 15.5t86.5 62.5h21v-459h-21q-35 47 -86.5 62.5t-185.5 15.5h-84v-328h281q130 0 182.5 19t89.5 69h20v-391h-1089z M319 1616l322 334h33l321 -334l-10 -12l-328 122l-327 -122z" />
<glyph unicode="&#xeb;" horiz-adv-x="1290" d="M82 0v20q35 17 53 43t26.5 78.5t8.5 145.5v962q0 93 -8.5 145.5t-26.5 78.5t-53 43v20h1075v-391h-20q-37 50 -90 69t-183 19h-266v-299h84q134 0 185.5 15.5t86.5 62.5h21v-459h-21q-35 47 -86.5 62.5t-185.5 15.5h-84v-328h281q130 0 182.5 19t89.5 69h20v-391h-1089z M293 1786q0 70 45.5 115t114.5 45t114 -45t45 -115t-45 -115t-114 -45t-114.5 45t-45.5 115zM702 1786q0 70 45.5 115t114.5 45t114.5 -45t45.5 -115t-45.5 -115t-114.5 -45t-114.5 45t-45.5 115z" />
<glyph unicode="&#xec;" horiz-adv-x="768" d="M37 1763l174 240l293 -371l-15 -18zM82 0v20q35 17 53 43t26.5 78.5t8.5 145.5v962q0 93 -8.5 145.5t-26.5 78.5t-53 43v20h604v-20q-35 -17 -53 -43t-26.5 -78.5t-8.5 -145.5v-962q0 -93 8.5 -145.5t26.5 -78.5t53 -43v-20h-604z" />
<glyph unicode="&#xed;" horiz-adv-x="768" d="M82 0v20q35 17 53 43t26.5 78.5t8.5 145.5v962q0 93 -8.5 145.5t-26.5 78.5t-53 43v20h604v-20q-35 -17 -53 -43t-26.5 -78.5t-8.5 -145.5v-962q0 -93 8.5 -145.5t26.5 -78.5t53 -43v-20h-604zM264 1632l293 371l174 -240l-452 -149z" />
<glyph unicode="&#xee;" horiz-adv-x="768" d="M47 1616l322 334h32l322 -334l-10 -12l-328 122l-328 -122zM82 0v20q35 17 53 43t26.5 78.5t8.5 145.5v962q0 93 -8.5 145.5t-26.5 78.5t-53 43v20h604v-20q-35 -17 -53 -43t-26.5 -78.5t-8.5 -145.5v-962q0 -93 8.5 -145.5t26.5 -78.5t53 -43v-20h-604z" />
<glyph unicode="&#xef;" horiz-adv-x="768" d="M20 1786q0 70 45.5 115t114.5 45t114.5 -45t45.5 -115t-45.5 -115t-114.5 -45t-114.5 45t-45.5 115zM82 0v20q35 17 53 43t26.5 78.5t8.5 145.5v962q0 93 -8.5 145.5t-26.5 78.5t-53 43v20h604v-20q-35 -17 -53 -43t-26.5 -78.5t-8.5 -145.5v-962q0 -93 8.5 -145.5 t26.5 -78.5t53 -43v-20h-604zM430 1786q0 70 45.5 115t114.5 45t114.5 -45t45.5 -115t-45.5 -115t-114.5 -45t-114.5 45t-45.5 115z" />
<glyph unicode="&#xf1;" horiz-adv-x="1460" d="M82 0v20q35 17 53 43t26.5 78.5t8.5 145.5v962q0 93 -8.5 145.5t-26.5 78.5t-53 43v20h518l326 -739v452q0 136 -17.5 189.5t-64.5 77.5v20h545v-20q-35 -17 -53 -43t-27 -78.5t-9 -145.5v-1249h-378l-377 813v-526q0 -136 17.5 -189.5t64.5 -77.5v-20h-545zM412 1634v49 q0 111 48.5 170.5t135.5 59.5q50 0 129 -29l94 -33q61 -20 96 -20q68 0 115 76l6 10l23 -6v-49q0 -111 -49 -170.5t-136 -59.5q-50 0 -129 29l-94 33q-61 20 -96 20q-68 0 -115 -76l-6 -10z" />
<glyph unicode="&#xf2;" d="M82 463v610q0 246 140.5 368t430.5 122h49q290 0 431 -122t141 -368v-610q0 -246 -141 -368t-431 -122h-49q-290 0 -430.5 122t-140.5 368zM330 1763l174 240l293 -371l-15 -18zM510 457q0 -87 38.5 -128.5t129.5 -41.5t129.5 41.5t38.5 128.5v622q0 87 -38.5 128.5 t-129.5 41.5t-129.5 -41.5t-38.5 -128.5v-622z" />
<glyph unicode="&#xf3;" d="M82 463v610q0 246 140.5 368t430.5 122h49q290 0 431 -122t141 -368v-610q0 -246 -141 -368t-431 -122h-49q-290 0 -430.5 122t-140.5 368zM510 457q0 -87 38.5 -128.5t129.5 -41.5t129.5 41.5t38.5 128.5v622q0 87 -38.5 128.5t-129.5 41.5t-129.5 -41.5t-38.5 -128.5 v-622zM559 1632l293 371l174 -240l-453 -149z" />
<glyph unicode="&#xf4;" d="M82 463v610q0 246 140.5 368t430.5 122h49q290 0 431 -122t141 -368v-610q0 -246 -141 -368t-431 -122h-49q-290 0 -430.5 122t-140.5 368zM340 1616l322 334h32l322 -334l-10 -12l-328 122l-328 -122zM510 457q0 -87 38.5 -128.5t129.5 -41.5t129.5 41.5t38.5 128.5v622 q0 87 -38.5 128.5t-129.5 41.5t-129.5 -41.5t-38.5 -128.5v-622z" />
<glyph unicode="&#xf5;" d="M82 463v610q0 246 140.5 368t430.5 122h49q290 0 431 -122t141 -368v-610q0 -246 -141 -368t-431 -122h-49q-290 0 -430.5 122t-140.5 368zM354 1634v49q0 111 49 170.5t136 59.5q50 0 129 -29l94 -33q61 -20 96 -20q68 0 115 76l6 10l22 -6v-49q0 -111 -48.5 -170.5 t-135.5 -59.5q-50 0 -129 29l-94 33q-61 20 -96 20q-68 0 -115 -76l-6 -10zM510 457q0 -87 38.5 -128.5t129.5 -41.5t129.5 41.5t38.5 128.5v622q0 87 -38.5 128.5t-129.5 41.5t-129.5 -41.5t-38.5 -128.5v-622z" />
<glyph unicode="&#xf6;" d="M82 463v610q0 246 140.5 368t430.5 122h49q290 0 431 -122t141 -368v-610q0 -246 -141 -368t-431 -122h-49q-290 0 -430.5 122t-140.5 368zM313 1786q0 70 45.5 115t114.5 45t114.5 -45t45.5 -115t-45.5 -115t-114.5 -45t-114.5 45t-45.5 115zM510 457q0 -87 38.5 -128.5 t129.5 -41.5t129.5 41.5t38.5 128.5v622q0 87 -38.5 128.5t-129.5 41.5t-129.5 -41.5t-38.5 -128.5v-622zM723 1786q0 70 45.5 115t114.5 45t114 -45t45 -115t-45 -115t-114 -45t-114.5 45t-45.5 115z" />
<glyph unicode="&#xf8;" d="M82 463v610q0 246 140.5 368t430.5 122h49q240 0 379 -86l41 59h150l-94 -141q96 -119 96 -322v-610q0 -246 -141 -368t-431 -122h-49q-240 0 -381 84l-39 -57h-149l94 139q-96 116 -96 324zM510 631l332 491q-8 64 -47 95.5t-117 31.5q-91 0 -129.5 -41.5t-38.5 -128.5 v-448zM512 412q9 -65 47.5 -95t118.5 -30q91 0 129.5 41.5t38.5 128.5v448z" />
<glyph unicode="&#xf9;" horiz-adv-x="1423" d="M61 1516v20h598v-20q-47 -24 -64 -77.5t-17 -189.5v-774q0 -86 36.5 -125t122.5 -39t123 39t37 125v774q0 136 -17.5 189.5t-64.5 77.5v20h547v-20q-35 -17 -53 -43t-26.5 -78.5t-8.5 -145.5v-807q0 -228 -140 -348.5t-401 -120.5h-43q-260 0 -400 120.5t-140 348.5v807 q0 93 -9 145.5t-27 78.5t-53 43zM362 1763l175 240l292 -371l-14 -18z" />
<glyph unicode="&#xfa;" horiz-adv-x="1423" d="M61 1516v20h598v-20q-47 -24 -64 -77.5t-17 -189.5v-774q0 -86 36.5 -125t122.5 -39t123 39t37 125v774q0 136 -17.5 189.5t-64.5 77.5v20h547v-20q-35 -17 -53 -43t-26.5 -78.5t-8.5 -145.5v-807q0 -228 -140 -348.5t-401 -120.5h-43q-260 0 -400 120.5t-140 348.5v807 q0 93 -9 145.5t-27 78.5t-53 43zM592 1632l293 371l174 -240l-453 -149z" />
<glyph unicode="&#xfb;" horiz-adv-x="1423" d="M61 1516v20h598v-20q-47 -24 -64 -77.5t-17 -189.5v-774q0 -86 36.5 -125t122.5 -39t123 39t37 125v774q0 136 -17.5 189.5t-64.5 77.5v20h547v-20q-35 -17 -53 -43t-26.5 -78.5t-8.5 -145.5v-807q0 -228 -140 -348.5t-401 -120.5h-43q-260 0 -400 120.5t-140 348.5v807 q0 93 -9 145.5t-27 78.5t-53 43zM373 1616l321 334h33l322 -334l-11 -12l-327 122l-328 -122z" />
<glyph unicode="&#xfc;" horiz-adv-x="1423" d="M61 1516v20h598v-20q-47 -24 -64 -77.5t-17 -189.5v-774q0 -86 36.5 -125t122.5 -39t123 39t37 125v774q0 136 -17.5 189.5t-64.5 77.5v20h547v-20q-35 -17 -53 -43t-26.5 -78.5t-8.5 -145.5v-807q0 -228 -140 -348.5t-401 -120.5h-43q-260 0 -400 120.5t-140 348.5v807 q0 93 -9 145.5t-27 78.5t-53 43zM346 1786q0 70 45.5 115t114.5 45t114.5 -45t45.5 -115t-45.5 -115t-114.5 -45t-114.5 45t-45.5 115zM756 1786q0 70 45 115t114 45t114.5 -45t45.5 -115t-45.5 -115t-114.5 -45t-114 45t-45 115z" />
<glyph unicode="&#xfd;" horiz-adv-x="1378" d="M0 1516v20h602v-20q-25 -8 -35 -26t-3 -62.5t36 -120.5l129 -340l131 340q29 76 36 120.5t-3 62.5t-35 26v20h520v-20q-41 -25 -78 -86t-106 -226l-291 -692v-225q0 -135 20.5 -189t75.5 -78v-20h-620v20q55 24 75.5 78t20.5 189v225l-291 692q-69 165 -106 226t-78 86z M569 1632l293 371l174 -240l-452 -149z" />
<glyph unicode="&#xff;" horiz-adv-x="1378" d="M0 1516v20h602v-20q-25 -8 -35 -26t-3 -62.5t36 -120.5l129 -340l131 340q29 76 36 120.5t-3 62.5t-35 26v20h520v-20q-41 -25 -78 -86t-106 -226l-291 -692v-225q0 -135 20.5 -189t75.5 -78v-20h-620v20q55 24 75.5 78t20.5 189v225l-291 692q-69 165 -106 226t-78 86z M324 1786q0 70 45 115t114 45t114.5 -45t45.5 -115t-45.5 -115t-114.5 -45t-114 45t-45 115zM733 1786q0 70 45.5 115t114.5 45t114.5 -45t45.5 -115t-45.5 -115t-114.5 -45t-114.5 45t-45.5 115z" />
<glyph unicode="&#x152;" horiz-adv-x="1935" d="M82 489v558q0 246 140.5 367.5t430.5 121.5h1149v-391h-20q-37 50 -90 69t-183 19h-266v-299h84q134 0 185.5 15.5t86.5 62.5h21v-459h-21q-35 47 -86.5 62.5t-185.5 15.5h-84v-328h281q130 0 182.5 19t89.5 69h21v-391h-1164q-290 0 -430.5 121.5t-140.5 367.5zM510 473 q0 -87 38.5 -128.5t129.5 -41.5h137v930h-137q-91 0 -129.5 -41.5t-38.5 -128.5v-590z" />
<glyph unicode="&#x153;" horiz-adv-x="1935" d="M82 489v558q0 246 140.5 367.5t430.5 121.5h1149v-391h-20q-37 50 -90 69t-183 19h-266v-299h84q134 0 185.5 15.5t86.5 62.5h21v-459h-21q-35 47 -86.5 62.5t-185.5 15.5h-84v-328h281q130 0 182.5 19t89.5 69h21v-391h-1164q-290 0 -430.5 121.5t-140.5 367.5zM510 473 q0 -87 38.5 -128.5t129.5 -41.5h137v930h-137q-91 0 -129.5 -41.5t-38.5 -128.5v-590z" />
<glyph unicode="&#x178;" horiz-adv-x="1378" d="M0 1516v20h602v-20q-25 -8 -35 -26t-3 -62.5t36 -120.5l129 -340l131 340q29 76 36 120.5t-3 62.5t-35 26v20h520v-20q-41 -25 -78 -86t-106 -226l-291 -692v-225q0 -135 20.5 -189t75.5 -78v-20h-620v20q55 24 75.5 78t20.5 189v225l-291 692q-69 165 -106 226t-78 86z M324 1786q0 70 45 115t114 45t114.5 -45t45.5 -115t-45.5 -115t-114.5 -45t-114 45t-45 115zM733 1786q0 70 45.5 115t114.5 45t114.5 -45t45.5 -115t-45.5 -115t-114.5 -45t-114.5 45t-45.5 115z" />
<glyph unicode="&#x2c6;" horiz-adv-x="880" d="M102 1616l322 334h33l321 -334l-10 -12l-328 122l-327 -122z" />
<glyph unicode="&#x2da;" horiz-adv-x="647" d="M102 1812v11q0 90 55 143t150 53h33q95 0 150 -53t55 -143v-11q0 -90 -55 -143t-150 -53h-33q-95 0 -150 53t-55 143zM223 1817q0 -47 25.5 -75t75.5 -28q49 0 74.5 28t25.5 75v2q0 47 -25 74.5t-75 27.5t-75.5 -27.5t-25.5 -74.5v-2z" />
<glyph unicode="&#x2dc;" horiz-adv-x="851" d="M102 1634v49q0 111 49 170.5t136 59.5q50 0 129 -29l94 -33q61 -20 96 -20q68 0 115 76l6 10l23 -6v-49q0 -111 -49 -170.5t-136 -59.5q-50 0 -129 29l-94 33q-61 20 -96 20q-68 0 -115 -76l-6 -10z" />
<glyph unicode="&#x2000;" horiz-adv-x="1009" />
<glyph unicode="&#x2001;" horiz-adv-x="2019" />
<glyph unicode="&#x2002;" horiz-adv-x="1009" />
<glyph unicode="&#x2003;" horiz-adv-x="2019" />
<glyph unicode="&#x2004;" horiz-adv-x="673" />
<glyph unicode="&#x2005;" horiz-adv-x="504" />
<glyph unicode="&#x2006;" horiz-adv-x="336" />
<glyph unicode="&#x2007;" horiz-adv-x="336" />
<glyph unicode="&#x2008;" horiz-adv-x="252" />
<glyph unicode="&#x2009;" horiz-adv-x="403" />
<glyph unicode="&#x200a;" horiz-adv-x="112" />
<glyph unicode="&#x2010;" horiz-adv-x="731" d="M72 616v336h587v-336h-587z" />
<glyph unicode="&#x2011;" horiz-adv-x="731" d="M72 616v336h587v-336h-587z" />
<glyph unicode="&#x2012;" horiz-adv-x="731" d="M72 616v336h587v-336h-587z" />
<glyph unicode="&#x2013;" horiz-adv-x="956" d="M72 616v336h813v-336h-813z" />
<glyph unicode="&#x2014;" horiz-adv-x="1202" d="M72 616v336h1058v-336h-1058z" />
<glyph unicode="&#x2018;" horiz-adv-x="581" d="M92 1157q0 135 104.5 244.5t274.5 152.5l8 -22q-110 -66 -151 -205q72 -12 116.5 -65.5t44.5 -128.5q0 -87 -55.5 -143t-142.5 -56q-88 0 -143.5 59.5t-55.5 163.5z" />
<glyph unicode="&#x2019;" horiz-adv-x="581" d="M92 1356q0 87 56 142.5t143 55.5q88 0 143 -59.5t55 -163.5q0 -135 -104 -244.5t-274 -152.5l-9 22q109 67 150 203q-71 12 -115.5 66.5t-44.5 130.5z" />
<glyph unicode="&#x201a;" horiz-adv-x="581" d="M92 172q0 87 56 143t143 56q88 0 143 -60t55 -164q0 -135 -104 -244.5t-274 -152.5l-9 23q110 68 150 204q-71 12 -115.5 65.5t-44.5 129.5z" />
<glyph unicode="&#x201c;" horiz-adv-x="1042" d="M92 1157q0 135 104.5 244.5t274.5 152.5l8 -22q-110 -66 -151 -205q72 -12 116.5 -65.5t44.5 -128.5q0 -87 -55.5 -143t-142.5 -56q-88 0 -143.5 59.5t-55.5 163.5zM553 1157q0 135 104.5 244.5t274.5 152.5l8 -22q-111 -67 -152 -205q72 -12 117 -65.5t45 -128.5 q0 -87 -56 -143t-142 -56q-88 0 -143.5 59.5t-55.5 163.5z" />
<glyph unicode="&#x201d;" horiz-adv-x="1042" d="M92 1356q0 87 56 142.5t143 55.5q88 0 143 -59.5t55 -163.5q0 -135 -104 -244.5t-274 -152.5l-9 22q109 67 150 203q-71 12 -115.5 66.5t-44.5 130.5zM553 1356q0 87 56 142.5t143 55.5q88 0 143 -59.5t55 -163.5q0 -135 -104.5 -244.5t-274.5 -152.5l-8 22 q109 67 150 203q-71 12 -115.5 66.5t-44.5 130.5z" />
<glyph unicode="&#x201e;" horiz-adv-x="1042" d="M92 172q0 87 56 143t143 56q88 0 143 -60t55 -164q0 -135 -104 -244.5t-274 -152.5l-9 23q110 68 150 204q-71 12 -115.5 65.5t-44.5 129.5zM553 172q0 87 56 143t143 56q88 0 143 -60t55 -164q0 -135 -104.5 -244.5t-274.5 -152.5l-8 23q110 68 150 204 q-71 12 -115.5 65.5t-44.5 129.5z" />
<glyph unicode="&#x2026;" horiz-adv-x="1662" d="M82 182q0 92 59 150.5t150 58.5t150 -58.5t59 -150.5t-59 -150.5t-150 -58.5t-150 58.5t-59 150.5zM623 182q0 92 58.5 150.5t149.5 58.5t150 -58.5t59 -150.5t-59 -150.5t-150 -58.5t-149.5 58.5t-58.5 150.5zM1163 182q0 92 59 150.5t150 58.5t150 -58.5t59 -150.5 t-59 -150.5t-150 -58.5t-150 58.5t-59 150.5z" />
<glyph unicode="&#x202f;" horiz-adv-x="403" />
<glyph unicode="&#x2039;" horiz-adv-x="643" d="M113 737v94q0 177 122 278t320 101h27v-20l-25 -8q-75 -25 -113 -114t-38 -257v-53q0 -168 38 -257t113 -114l25 -8v-21h-27q-198 0 -320 101t-122 278z" />
<glyph unicode="&#x203a;" horiz-adv-x="643" d="M61 358v21l25 8q152 51 152 371v53q0 320 -152 371l-25 8v20h27q198 0 320 -101t122 -278v-94q0 -177 -122 -278t-320 -101h-27z" />
<glyph unicode="&#x205f;" horiz-adv-x="504" />
<glyph unicode="&#x20ac;" horiz-adv-x="1228" d="M20 584v139h123v106h-123v140h123v102q0 247 141 369.5t433 122.5h14q185 0 381 -47v-404h-20q-58 61 -126 88t-167 27q-130 0 -179 -40t-49 -134v-84h369v-140h-369v-106h369v-139h-369v-101q0 -94 49 -134t179 -40q100 0 170 27t127 88h20v-404q-196 -47 -385 -47h-14 q-292 0 -433 122t-141 368v121h-123z" />
<glyph unicode="&#x25fc;" horiz-adv-x="1536" d="M0 0v1536h1536v-1536h-1536z" />
</font>
</defs>
</svg>
