<svg width="300" height="24" viewBox="0 0 300 24" fill="none" xmlns="http://www.w3.org/2000/svg">
<g clip-path="url(#clip0_550_1240)">
<path d="M14.7563 5.78378H16.3637C18.3232 5.79428 19.9044 7.23366 19.8992 8.99874V20.0935C19.8992 21.8638 18.2759 23.298 16.3165 23.2927H14.709C16.3585 23.2927 17.7191 22.0845 17.7243 20.5926V8.48392C17.7348 6.99727 16.4005 5.78378 14.7563 5.77852" fill="white"/>
<path d="M11.4677 12.9176C10.4013 12.9176 9.53982 12.0561 9.53982 10.9897C9.53982 9.9233 10.4013 9.06178 11.4677 9.06178C12.5341 9.06178 13.3957 9.92856 13.3957 10.9897C13.3957 12.0509 12.5341 12.9176 11.4677 12.9176ZM14.6722 7.56987H0.577853C0.26266 7.56987 0 7.82728 0 8.14772V20.7817C0 21.0969 0.257407 21.3595 0.577853 21.3595H14.6775C14.9926 21.3595 15.2553 21.1021 15.2553 20.7817V8.14772C15.2553 7.82728 14.9979 7.56987 14.6775 7.56987" fill="white"/>
<path d="M23.03 11.3732C23.03 9.62387 22.967 8.15297 22.9039 6.83967H26.1872L26.3763 9.0933H26.4709C27.1905 7.90607 28.5669 6.49821 31.162 6.49821C33.1634 6.49821 34.7289 7.6224 35.3855 9.31393H35.4486C35.9792 8.46816 36.6043 7.84303 37.2925 7.40702C38.1645 6.81341 39.1363 6.49821 40.4181 6.49821C42.9186 6.49821 45.4822 8.21601 45.4822 13.0962V22.0687H41.7314V13.6583C41.7314 11.1263 40.8541 9.62387 39.0103 9.62387C37.697 9.62387 36.7251 10.5642 36.3206 11.6569C36.1945 11.9983 36.1315 12.5026 36.1315 12.9386V22.0687H32.3807V13.2486C32.3807 11.121 31.5349 9.62387 29.7541 9.62387C28.3147 9.62387 27.3481 10.7481 26.9699 11.7829C26.8438 12.1927 26.7808 12.6287 26.7808 13.0647V22.0687H23.03V11.3732Z" fill="white"/>
<path d="M56.0517 14.6249C53.3305 14.5934 50.7355 15.1555 50.7355 17.4722C50.7355 18.9746 51.7073 19.6627 52.926 19.6627C54.4915 19.6627 55.5842 18.6594 55.9571 17.5667C56.0517 17.283 56.0517 17.0046 56.0517 16.7209V14.6249ZM59.8025 18.4072C59.8025 19.7836 59.8655 21.1284 60.0546 22.0687H56.5823L56.2986 20.3824H56.204C55.2952 21.5697 53.7035 22.4154 51.7021 22.4154C48.6394 22.4154 46.9164 20.1933 46.9164 17.8819C46.9164 14.0681 50.3257 12.0981 55.9571 12.1296V11.8775C55.9571 10.8794 55.5527 9.21937 52.863 9.21937C51.3606 9.21937 49.8004 9.68691 48.7655 10.3436L48.0143 7.84303C49.1385 7.15486 51.1084 6.49821 53.5197 6.49821C58.3999 6.49821 59.8077 9.59235 59.8077 12.9386V18.4125L59.8025 18.4072Z" fill="white"/>
<path d="M66.1536 0H62.3082V22.0687H66.1536V0Z" fill="white"/>
<path d="M78.1624 12.8126C78.194 11.4047 77.5688 9.0933 75.0053 9.0933C72.6308 9.0933 71.6275 11.2524 71.4699 12.8126H78.1624ZM71.4699 15.5022C71.5644 18.2549 73.7235 19.4736 76.161 19.4736C77.9418 19.4736 79.1921 19.19 80.3845 18.7855L80.9466 21.4121C79.6333 21.9742 77.821 22.3786 75.6304 22.3786C70.6924 22.3786 67.7821 19.3476 67.7821 14.6564C67.7821 10.4329 70.3457 6.46144 75.2259 6.46144C80.1061 6.46144 81.7924 10.5274 81.7924 13.8737C81.7924 14.5934 81.7294 15.187 81.6663 15.5337L71.4699 15.5022Z" fill="white"/>
<path d="M87.7337 2.93129V6.83967H91.39V9.71843H87.7337V16.4425C87.7337 18.3179 88.2328 19.2582 89.7037 19.2582C90.3919 19.2582 90.7648 19.2267 91.2061 19.1006L91.2691 22.0109C90.7071 22.2316 89.6722 22.4154 88.4849 22.4154C87.0456 22.4154 85.8899 21.9479 85.1702 21.1652C84.3244 20.2879 83.9514 18.88 83.9514 16.8838V9.72368H81.7924V6.84492H83.9514V3.99769L87.7337 2.93654V2.93129Z" fill="white"/>
<path d="M101.959 12.8126C101.991 11.4047 101.366 9.0933 98.8023 9.0933C96.4278 9.0933 95.4244 11.2524 95.2669 12.8126H101.959ZM95.2669 15.5022C95.3614 18.2549 97.5205 19.4736 99.958 19.4736C101.739 19.4736 102.989 19.19 104.182 18.7855L104.744 21.4121C103.43 21.9742 101.618 22.3786 99.4274 22.3786C94.4841 22.3786 91.5791 19.3476 91.5791 14.6564C91.5791 10.4329 94.1427 6.46144 99.0229 6.46144C103.903 6.46144 105.589 10.5274 105.589 13.8737C105.589 14.5934 105.526 15.187 105.463 15.5337L95.2669 15.5022Z" fill="white"/>
<path d="M110.964 13.527H111.027C111.4 12.9334 111.841 12.2767 112.214 11.7146L115.933 6.83442H120.561L114.903 13.0595L121.344 22.0635H116.621L112.245 15.3394L110.964 16.8733V22.0635H107.118V0H110.964V13.527Z" fill="white"/>
<path d="M130.243 15.3078H130.747C130.71 15.9487 130.547 16.4478 130.264 16.7945C129.975 17.1412 129.581 17.3146 129.071 17.3146C127.868 17.3146 127.269 16.3427 127.269 14.399C127.269 12.4553 127.868 11.4835 129.071 11.4835C129.612 11.4835 130.027 11.6569 130.311 12.0036C130.563 12.3135 130.689 12.718 130.689 13.2223H130.185C130.185 12.8283 130.085 12.5079 129.891 12.2715C129.696 12.0298 129.423 11.9143 129.066 11.9143C128.204 11.9143 127.768 12.7443 127.768 14.4043C127.768 16.0643 128.199 16.8943 129.066 16.8943C129.413 16.8943 129.691 16.7577 129.891 16.474C130.096 16.1956 130.206 15.8069 130.232 15.3131" fill="white"/>
<path d="M132.922 15.6388V11.5781H133.426V15.6335C133.426 16.4741 133.794 16.8891 134.535 16.8891C135.275 16.8891 135.643 16.4688 135.643 15.6335V11.5781H136.147V15.6388C136.147 16.7577 135.612 17.3146 134.535 17.3146C133.458 17.3146 132.922 16.7577 132.922 15.6388Z" fill="white"/>
<path d="M141.511 13.0227H141.007C141.007 12.282 140.67 11.909 139.993 11.909C139.662 11.909 139.399 12.0036 139.21 12.1979C139.021 12.3923 138.926 12.6287 138.926 12.9229C138.926 13.3852 139.163 13.7266 139.641 13.942C140.077 14.1101 140.513 14.2782 140.954 14.4463C141.427 14.6985 141.663 15.103 141.663 15.6651C141.663 16.2271 141.511 16.6054 141.206 16.8891C140.901 17.1727 140.486 17.3146 139.956 17.3146C138.858 17.3146 138.312 16.7577 138.312 15.6388V15.4707H138.816V15.6861C138.816 16.0538 138.91 16.348 139.105 16.5634C139.299 16.7787 139.578 16.8891 139.94 16.8891C140.303 16.8891 140.613 16.7945 140.828 16.6001C141.049 16.4058 141.154 16.1221 141.154 15.7439C141.154 15.2868 140.917 14.9506 140.444 14.7405C140.008 14.5724 139.567 14.4043 139.131 14.2362C138.658 13.9735 138.417 13.5533 138.417 12.9807C138.417 12.5341 138.553 12.1717 138.832 11.8985C139.11 11.6253 139.488 11.4888 139.972 11.4888C140.996 11.4888 141.506 12.0036 141.506 13.0279" fill="white"/>
<path d="M144.967 17.22V12.0036H143.512V11.5728H146.927V12.0036H145.472V17.22H144.967Z" fill="white"/>
<path d="M149.454 14.399C149.454 16.059 149.884 16.8891 150.751 16.8891C151.618 16.8891 152.049 16.059 152.049 14.399C152.049 12.739 151.618 11.909 150.751 11.909C149.884 11.909 149.454 12.739 149.454 14.399ZM148.949 14.399C148.949 12.4553 149.548 11.4835 150.751 11.4835C151.954 11.4835 152.553 12.4553 152.553 14.399C152.553 16.3427 151.954 17.3146 150.751 17.3146C149.548 17.3146 148.949 16.3427 148.949 14.399Z" fill="white"/>
<path d="M155.479 12.0036V16.7945H156.299C156.866 16.7945 157.27 16.6264 157.502 16.2902C157.748 15.933 157.874 15.3026 157.874 14.4095C157.874 13.5165 157.748 12.8704 157.502 12.5131C157.27 12.1769 156.871 12.0088 156.299 12.0088H155.479V12.0036ZM154.975 17.22V11.5781H156.335C157.118 11.5781 157.67 11.8197 157.98 12.2978C158.247 12.718 158.384 13.4219 158.384 14.399C158.384 15.3761 158.247 16.0801 157.98 16.5003C157.67 16.9784 157.118 17.22 156.335 17.22H154.975Z" fill="white"/>
<path d="M161.331 11.5728H160.827V17.2148H161.331V11.5728Z" fill="white"/>
<path d="M164.488 15.1502H166.243L165.376 11.9721H165.36L164.494 15.1502H164.488ZM163.38 17.22L165.045 11.5781H165.676L167.341 17.22H166.805L166.348 15.5758H164.373L163.916 17.22H163.38Z" fill="white"/>
<path d="M172.615 14.4411C172.615 14.2152 172.694 14.0208 172.851 13.8632C173.009 13.7056 173.203 13.6268 173.429 13.6268C173.655 13.6268 173.849 13.7056 174.007 13.8632C174.165 14.0208 174.243 14.2152 174.243 14.4411C174.243 14.6669 174.165 14.8613 174.007 15.0189C173.849 15.1765 173.655 15.2553 173.429 15.2553C173.203 15.2553 173.009 15.1765 172.851 15.0189C172.694 14.8613 172.615 14.6669 172.615 14.4411Z" fill="white"/>
<path d="M179.959 17.22V11.5728H182.754V12.0036H180.463V14.0576H182.607V14.4831H180.463V16.7945H182.827V17.22H179.959Z" fill="white"/>
<path d="M187.513 16.6316L186.872 16.017L187.151 15.7176L187.76 16.3112C187.986 15.9014 188.102 15.2606 188.102 14.399C188.102 12.739 187.671 11.909 186.804 11.909C185.937 11.909 185.507 12.739 185.507 14.399C185.507 16.059 185.937 16.8891 186.804 16.8891C187.088 16.8891 187.324 16.805 187.513 16.6369M188.391 17.5194L187.823 16.9678C187.555 17.199 187.214 17.3146 186.804 17.3146C185.601 17.3146 185.002 16.3427 185.002 14.399C185.002 12.4553 185.601 11.4835 186.804 11.4835C188.007 11.4835 188.606 12.4553 188.606 14.399C188.606 15.4392 188.433 16.1904 188.091 16.6684L188.669 17.22L188.391 17.5194Z" fill="white"/>
<path d="M190.943 15.6388V11.5781H191.448V15.6335C191.448 16.4741 191.815 16.8891 192.556 16.8891C193.297 16.8891 193.665 16.4688 193.665 15.6335V11.5781H194.169V15.6388C194.169 16.7577 193.633 17.3146 192.556 17.3146C191.479 17.3146 190.943 16.7577 190.943 15.6388Z" fill="white"/>
<path d="M197.09 11.5728H196.585V17.2148H197.09V11.5728Z" fill="white"/>
<path d="M200.095 12.0036V14.3412H200.956C201.755 14.3412 202.159 13.9525 202.159 13.1698C202.159 12.3871 201.76 11.9983 200.956 11.9983H200.095V12.0036ZM199.59 17.22V11.5781H201.114C202.149 11.5781 202.663 12.1086 202.663 13.175C202.663 14.2414 202.091 14.772 200.94 14.772H200.095V17.22H199.59Z" fill="white"/>
<path d="M205.327 15.1502H207.081L206.214 11.9721H206.199L205.332 15.1502H205.327ZM204.218 17.22L205.884 11.5781H206.514L208.179 17.22H207.643L207.186 15.5758H205.211L204.754 17.22H204.218Z" fill="white"/>
<path d="M210.254 17.22V11.5728H211.131L212.487 16.5844H212.503L213.863 11.5728H214.693V17.22H214.189V12.0509L212.713 17.22H212.235L210.758 12.0509V17.22H210.254Z" fill="white"/>
<path d="M217.745 11.5728H217.241V17.2148H217.745V11.5728Z" fill="white"/>
<path d="M220.24 17.22V11.5728H223.04V12.0036H220.75V14.0576H222.888V14.4831H220.75V16.7945H223.109V17.22H220.24Z" fill="white"/>
<path d="M225.331 17.22V11.5728H226.014L228.189 16.4898V11.5728H228.693V17.22H228.01L225.841 12.303V17.22H225.331Z" fill="white"/>
<path d="M232.218 17.22V12.0036H230.763V11.5728H234.177V12.0036H232.722V17.22H232.218Z" fill="white"/>
<path d="M236.704 14.399C236.704 16.059 237.135 16.8891 238.002 16.8891C238.868 16.8891 239.299 16.059 239.299 14.399C239.299 12.739 238.868 11.909 238.002 11.909C237.135 11.909 236.704 12.739 236.704 14.399ZM236.2 14.399C236.2 12.4553 236.799 11.4835 238.002 11.4835C239.205 11.4835 239.803 12.4553 239.803 14.399C239.803 16.3427 239.205 17.3146 238.002 17.3146C236.799 17.3146 236.2 16.3427 236.2 14.399Z" fill="white"/>
<path d="M245.472 14.4411C245.472 14.2152 245.55 14.0208 245.708 13.8632C245.866 13.7056 246.06 13.6268 246.286 13.6268C246.512 13.6268 246.706 13.7056 246.864 13.8632C247.021 14.0208 247.1 14.2152 247.1 14.4411C247.1 14.6669 247.021 14.8613 246.864 15.0189C246.706 15.1765 246.512 15.2553 246.286 15.2553C246.06 15.2553 245.866 15.1765 245.708 15.0189C245.55 14.8613 245.472 14.6669 245.472 14.4411Z" fill="white"/>
<path d="M252.863 17.22V11.5728H253.74L255.096 16.5844H255.111L256.472 11.5728H257.302V17.22H256.798V12.0509L255.322 17.22H254.843L253.367 12.0509V17.22H252.863Z" fill="white"/>
<path d="M260.275 14.399C260.275 16.059 260.706 16.8891 261.573 16.8891C262.44 16.8891 262.87 16.059 262.87 14.399C262.87 12.739 262.44 11.909 261.573 11.909C260.706 11.909 260.275 12.739 260.275 14.399ZM259.771 14.399C259.771 12.4553 260.37 11.4835 261.573 11.4835C262.776 11.4835 263.375 12.4553 263.375 14.399C263.375 16.3427 262.776 17.3146 261.573 17.3146C260.37 17.3146 259.771 16.3427 259.771 14.399Z" fill="white"/>
<path d="M266.295 14.4831V16.7892H267.236C268.102 16.7892 268.538 16.4058 268.538 15.6335C268.538 14.8613 268.102 14.4778 267.236 14.4778H266.295V14.4831ZM266.295 12.0036V14.0576H267.094C267.934 14.0576 268.36 13.7161 268.36 13.0279C268.36 12.6602 268.265 12.3976 268.076 12.24C267.887 12.0824 267.588 12.0036 267.183 12.0036H266.301H266.295ZM265.791 17.22V11.5781H267.346C268.36 11.5781 268.864 12.0509 268.864 12.9912C268.864 13.2801 268.791 13.5375 268.644 13.7581C268.486 13.9945 268.271 14.1469 267.997 14.2152V14.2309C268.339 14.2992 268.601 14.4568 268.78 14.7037C268.959 14.9506 269.048 15.2606 269.048 15.6388C269.048 16.1326 268.896 16.5213 268.596 16.7997C268.292 17.0782 267.877 17.22 267.341 17.22H265.791Z" fill="white"/>
<path d="M271.859 11.5728H271.354V17.2148H271.859V11.5728Z" fill="white"/>
<path d="M274.359 17.22V11.5728H274.863V16.7945H277.206V17.22H274.359Z" fill="white"/>
<path d="M279.843 11.5728H279.339V17.2148H279.843V11.5728Z" fill="white"/>
<path d="M283.001 15.1502H284.755L283.883 11.9721H283.868L282.996 15.1502H283.001ZM281.892 17.22L283.558 11.5781H284.188L285.853 17.22H285.317L284.86 15.5758H282.885L282.428 17.22H281.892Z" fill="white"/>
<path d="M288.38 12.0036V14.2152H289.252C290.092 14.2152 290.518 13.8474 290.518 13.1067C290.518 12.366 290.113 11.9983 289.31 11.9983H288.385L288.38 12.0036ZM287.876 17.22V11.5781H289.557C290.019 11.5781 290.381 11.7041 290.634 11.951C290.891 12.2032 291.017 12.5499 291.017 12.9912C291.017 13.8159 290.676 14.294 289.998 14.42V14.4358C290.339 14.4673 290.586 14.5881 290.728 14.793C290.875 15.0032 290.949 15.3236 290.965 15.7701L290.98 16.3847C290.991 16.7735 291.07 17.0519 291.217 17.2148H290.623C290.534 17.0677 290.481 16.805 290.471 16.4268L290.455 15.954C290.439 15.4444 290.36 15.103 290.224 14.9244C290.071 14.7352 289.772 14.6407 289.331 14.6407H288.375V17.2148H287.87L287.876 17.22Z" fill="white"/>
<path d="M293.943 11.5728H293.439V17.2148H293.943V11.5728Z" fill="white"/>
<path d="M296.901 14.399C296.901 16.059 297.331 16.8891 298.198 16.8891C299.065 16.8891 299.496 16.059 299.496 14.399C299.496 12.739 299.065 11.909 298.198 11.909C297.331 11.909 296.901 12.739 296.901 14.399ZM296.396 14.399C296.396 12.4553 296.995 11.4835 298.198 11.4835C299.401 11.4835 300 12.4553 300 14.399C300 16.3427 299.401 17.3146 298.198 17.3146C296.995 17.3146 296.396 16.3427 296.396 14.399Z" fill="white"/>
</g>
<defs>
<clipPath id="clip0_550_1240">
<rect width="300" height="23.2927" fill="white"/>
</clipPath>
</defs>
</svg>
